<mxfile host="Electron" agent="Mozilla/5.0 (Windows NT 10.0; Win64; x64) AppleWebKit/537.36 (KHTML, like Gecko) draw.io/25.0.1 Chrome/128.0.6613.186 Electron/32.2.6 Safari/537.36" version="25.0.1">
  <diagram name="Page-1" id="3yqpxKQvHaOyZTGhgoW6">
    <mxGraphModel dx="574" dy="-1482" grid="1" gridSize="10" guides="1" tooltips="1" connect="1" arrows="1" fold="1" page="1" pageScale="1" pageWidth="850" pageHeight="1100" math="0" shadow="0">
      <root>
        <mxCell id="0" />
        <mxCell id="1" parent="0" />
        <mxCell id="xk_BrVM3mgd0aOaVTL9x-410" value="" style="rounded=1;whiteSpace=wrap;html=1;fillColor=#FFFFCC;strokeColor=none;fontColor=#000000;arcSize=6;container=0;" vertex="1" parent="1">
          <mxGeometry x="3425" y="4832.5" width="795" height="350" as="geometry" />
        </mxCell>
        <mxCell id="xk_BrVM3mgd0aOaVTL9x-80" value="" style="rounded=1;whiteSpace=wrap;html=1;fillColor=#99FFFF;strokeColor=none;fontColor=#000000;arcSize=10;container=0;" vertex="1" parent="1">
          <mxGeometry x="2570" y="3360" width="150" height="330" as="geometry" />
        </mxCell>
        <mxCell id="xk_BrVM3mgd0aOaVTL9x-76" value="&lt;b style=&quot;font-family: &amp;quot;Comic Sans MS&amp;quot;; font-size: 18px;&quot;&gt;Environment&lt;/b&gt;" style="ellipse;whiteSpace=wrap;html=1;aspect=fixed;fillStyle=auto;gradientColor=none;fillColor=#CCFFFF;shadow=0;strokeWidth=2;container=0;fontColor=#000000;strokeColor=#000000;" vertex="1" parent="1">
          <mxGeometry x="2588" y="3471.5" width="115" height="115" as="geometry" />
        </mxCell>
        <mxCell id="xk_BrVM3mgd0aOaVTL9x-79" value="" style="rounded=1;whiteSpace=wrap;html=1;fillColor=#E6FFCC;strokeColor=none;fontColor=#000000;arcSize=5;container=0;" vertex="1" parent="1">
          <mxGeometry x="2729.99" y="3360" width="650.01" height="330" as="geometry" />
        </mxCell>
        <mxCell id="xk_BrVM3mgd0aOaVTL9x-78" value="&lt;font face=&quot;Comic Sans MS&quot;&gt;&lt;span style=&quot;font-size: 16px;&quot;&gt;&lt;b&gt;Sensors&lt;/b&gt;&lt;/span&gt;&lt;/font&gt;" style="rounded=1;whiteSpace=wrap;html=1;fillColor=#002040;strokeColor=none;fontColor=#FFFFFF;arcSize=50;container=0;" vertex="1" parent="1">
          <mxGeometry x="2819.2599999999998" y="3395" width="115" height="29" as="geometry" />
        </mxCell>
        <mxCell id="xk_BrVM3mgd0aOaVTL9x-82" value="&lt;font face=&quot;Comic Sans MS&quot; style=&quot;font-size: 16px;&quot;&gt;&lt;b style=&quot;&quot;&gt;Simple Reflex Agent&lt;/b&gt;&lt;/font&gt;" style="rounded=1;whiteSpace=wrap;html=1;fillColor=#80FF00;strokeColor=none;fontColor=#000000;arcSize=18;container=0;" vertex="1" parent="1">
          <mxGeometry x="2729.57" y="3320" width="650.43" height="30" as="geometry" />
        </mxCell>
        <mxCell id="xk_BrVM3mgd0aOaVTL9x-83" value="&lt;font face=&quot;Comic Sans MS&quot;&gt;&lt;span style=&quot;font-size: 16px;&quot;&gt;&lt;b&gt;Actuators&lt;/b&gt;&lt;/span&gt;&lt;/font&gt;" style="rounded=1;whiteSpace=wrap;html=1;fillColor=#002040;strokeColor=none;fontColor=#FFFFFF;arcSize=50;container=0;" vertex="1" parent="1">
          <mxGeometry x="2819.49" y="3629.5" width="115" height="29" as="geometry" />
        </mxCell>
        <mxCell id="xk_BrVM3mgd0aOaVTL9x-84" value="" style="endArrow=classic;html=1;rounded=1;strokeWidth=4;strokeColor=#000000;exitX=0.5;exitY=0;exitDx=0;exitDy=0;entryX=0;entryY=0.5;entryDx=0;entryDy=0;endFill=1;curved=0;" edge="1" parent="1" source="xk_BrVM3mgd0aOaVTL9x-76" target="xk_BrVM3mgd0aOaVTL9x-78">
          <mxGeometry width="50" height="50" relative="1" as="geometry">
            <mxPoint x="3011" y="3211" as="sourcePoint" />
            <mxPoint x="3032" y="3264" as="targetPoint" />
            <Array as="points">
              <mxPoint x="2646" y="3409" />
            </Array>
          </mxGeometry>
        </mxCell>
        <mxCell id="xk_BrVM3mgd0aOaVTL9x-89" value="&lt;font face=&quot;Comic Sans MS&quot;&gt;&lt;span style=&quot;font-size: 18px; text-wrap: wrap;&quot;&gt;&lt;b&gt;Percept&lt;/b&gt;&lt;/span&gt;&lt;/font&gt;" style="edgeLabel;html=1;align=center;verticalAlign=middle;resizable=0;points=[];labelBackgroundColor=none;" vertex="1" connectable="0" parent="xk_BrVM3mgd0aOaVTL9x-84">
          <mxGeometry x="0.1441" relative="1" as="geometry">
            <mxPoint x="52" y="-25" as="offset" />
          </mxGeometry>
        </mxCell>
        <mxCell id="xk_BrVM3mgd0aOaVTL9x-86" value="" style="endArrow=classic;html=1;rounded=1;strokeWidth=4;strokeColor=#000000;exitX=0;exitY=0.5;exitDx=0;exitDy=0;entryX=0.5;entryY=1;entryDx=0;entryDy=0;endFill=1;curved=0;" edge="1" parent="1" source="xk_BrVM3mgd0aOaVTL9x-83" target="xk_BrVM3mgd0aOaVTL9x-76">
          <mxGeometry width="50" height="50" relative="1" as="geometry">
            <mxPoint x="2664.33" y="3499.5" as="sourcePoint" />
            <mxPoint x="2653.83" y="3604" as="targetPoint" />
            <Array as="points">
              <mxPoint x="2646" y="3644" />
            </Array>
          </mxGeometry>
        </mxCell>
        <mxCell id="xk_BrVM3mgd0aOaVTL9x-93" value="" style="edgeStyle=orthogonalEdgeStyle;rounded=0;orthogonalLoop=1;jettySize=auto;html=1;" edge="1" parent="1" source="xk_BrVM3mgd0aOaVTL9x-87" target="xk_BrVM3mgd0aOaVTL9x-83">
          <mxGeometry relative="1" as="geometry" />
        </mxCell>
        <mxCell id="xk_BrVM3mgd0aOaVTL9x-87" value="&lt;font face=&quot;Comic Sans MS&quot;&gt;&lt;span style=&quot;font-size: 16px;&quot;&gt;&lt;b&gt;What is the World Like Now?&lt;/b&gt;&lt;/span&gt;&lt;/font&gt;" style="rounded=1;whiteSpace=wrap;html=1;fillColor=#006600;strokeColor=none;fontColor=#FFFFFF;arcSize=18;container=0;" vertex="1" parent="1">
          <mxGeometry x="2745.5899999999997" y="3504" width="262.34" height="50" as="geometry" />
        </mxCell>
        <mxCell id="xk_BrVM3mgd0aOaVTL9x-90" value="" style="endArrow=classic;html=1;rounded=0;strokeWidth=4;strokeColor=#000000;exitX=0.5;exitY=1;exitDx=0;exitDy=0;endFill=1;" edge="1" parent="1" source="xk_BrVM3mgd0aOaVTL9x-78" target="xk_BrVM3mgd0aOaVTL9x-87">
          <mxGeometry width="50" height="50" relative="1" as="geometry">
            <mxPoint x="3011" y="3211" as="sourcePoint" />
            <mxPoint x="3032" y="3264" as="targetPoint" />
          </mxGeometry>
        </mxCell>
        <mxCell id="xk_BrVM3mgd0aOaVTL9x-92" value="" style="endArrow=classic;html=1;rounded=0;strokeWidth=4;strokeColor=#000000;exitX=0.5;exitY=1;exitDx=0;exitDy=0;endFill=1;entryX=0.5;entryY=0;entryDx=0;entryDy=0;" edge="1" parent="1" source="xk_BrVM3mgd0aOaVTL9x-87" target="xk_BrVM3mgd0aOaVTL9x-83">
          <mxGeometry width="50" height="50" relative="1" as="geometry">
            <mxPoint x="2887" y="3433" as="sourcePoint" />
            <mxPoint x="2887" y="3514" as="targetPoint" />
          </mxGeometry>
        </mxCell>
        <mxCell id="xk_BrVM3mgd0aOaVTL9x-94" value="&lt;font style=&quot;font-size: 15px;&quot; face=&quot;Comic Sans MS&quot;&gt;&lt;b style=&quot;&quot;&gt;An Example of a Simple Reflex Agent is An Automated Taxi: If the Car Infront Breaks, then I will Break.&lt;/b&gt;&lt;/font&gt;" style="rounded=1;whiteSpace=wrap;html=1;fillColor=#FFCCFF;strokeColor=none;fontColor=#000000;arcSize=10;container=0;spacing=10;" vertex="1" parent="1">
          <mxGeometry x="3040" y="3541" width="280" height="82.36" as="geometry" />
        </mxCell>
        <mxCell id="xk_BrVM3mgd0aOaVTL9x-95" value="&lt;font face=&quot;Comic Sans MS&quot; style=&quot;font-size: 16px;&quot;&gt;&lt;b style=&quot;&quot;&gt;If-then-Rules&lt;/b&gt;&lt;/font&gt;" style="rounded=1;whiteSpace=wrap;html=1;fillColor=#CCCCFF;strokeColor=none;fontColor=#000000;arcSize=18;container=0;" vertex="1" parent="1">
          <mxGeometry x="3040" y="3628.5" width="280" height="31" as="geometry" />
        </mxCell>
        <mxCell id="xk_BrVM3mgd0aOaVTL9x-96" value="" style="endArrow=classic;html=1;rounded=0;strokeWidth=4;strokeColor=#000000;exitX=0;exitY=0.5;exitDx=0;exitDy=0;endFill=1;entryX=1;entryY=0.5;entryDx=0;entryDy=0;" edge="1" parent="1" source="xk_BrVM3mgd0aOaVTL9x-95" target="xk_BrVM3mgd0aOaVTL9x-83">
          <mxGeometry width="50" height="50" relative="1" as="geometry">
            <mxPoint x="2887" y="3564" as="sourcePoint" />
            <mxPoint x="2887" y="3640" as="targetPoint" />
          </mxGeometry>
        </mxCell>
        <mxCell id="xk_BrVM3mgd0aOaVTL9x-97" value="" style="rounded=1;whiteSpace=wrap;html=1;fillColor=#99FFFF;strokeColor=none;fontColor=#000000;arcSize=10;container=0;" vertex="1" parent="1">
          <mxGeometry x="2570" y="3760" width="150" height="330" as="geometry" />
        </mxCell>
        <mxCell id="xk_BrVM3mgd0aOaVTL9x-98" value="&lt;b style=&quot;font-family: &amp;quot;Comic Sans MS&amp;quot;; font-size: 18px;&quot;&gt;Environment&lt;/b&gt;" style="ellipse;whiteSpace=wrap;html=1;aspect=fixed;fillStyle=auto;gradientColor=none;fillColor=#CCFFFF;shadow=0;strokeWidth=2;container=0;fontColor=#000000;strokeColor=#000000;" vertex="1" parent="1">
          <mxGeometry x="2588" y="3871.5" width="115" height="115" as="geometry" />
        </mxCell>
        <mxCell id="xk_BrVM3mgd0aOaVTL9x-99" value="" style="rounded=1;whiteSpace=wrap;html=1;fillColor=#E6FFCC;strokeColor=none;fontColor=#000000;arcSize=5;container=0;" vertex="1" parent="1">
          <mxGeometry x="2729.99" y="3760" width="650.01" height="330" as="geometry" />
        </mxCell>
        <mxCell id="xk_BrVM3mgd0aOaVTL9x-100" value="&lt;font face=&quot;Comic Sans MS&quot;&gt;&lt;span style=&quot;font-size: 16px;&quot;&gt;&lt;b&gt;Sensors&lt;/b&gt;&lt;/span&gt;&lt;/font&gt;" style="rounded=1;whiteSpace=wrap;html=1;fillColor=#002040;strokeColor=none;fontColor=#FFFFFF;arcSize=50;container=0;" vertex="1" parent="1">
          <mxGeometry x="2819.2599999999998" y="3795" width="115" height="29" as="geometry" />
        </mxCell>
        <mxCell id="xk_BrVM3mgd0aOaVTL9x-101" value="&lt;font face=&quot;Comic Sans MS&quot; style=&quot;font-size: 16px;&quot;&gt;&lt;b style=&quot;&quot;&gt;Model-Based Agent&lt;/b&gt;&lt;/font&gt;" style="rounded=1;whiteSpace=wrap;html=1;fillColor=#80FF00;strokeColor=none;fontColor=#000000;arcSize=18;container=0;" vertex="1" parent="1">
          <mxGeometry x="2729.57" y="3720" width="650.43" height="30" as="geometry" />
        </mxCell>
        <mxCell id="xk_BrVM3mgd0aOaVTL9x-102" value="&lt;font face=&quot;Comic Sans MS&quot;&gt;&lt;span style=&quot;font-size: 16px;&quot;&gt;&lt;b&gt;Actuators&lt;/b&gt;&lt;/span&gt;&lt;/font&gt;" style="rounded=1;whiteSpace=wrap;html=1;fillColor=#002040;strokeColor=none;fontColor=#FFFFFF;arcSize=50;container=0;" vertex="1" parent="1">
          <mxGeometry x="2819.49" y="4029.5" width="115" height="29" as="geometry" />
        </mxCell>
        <mxCell id="xk_BrVM3mgd0aOaVTL9x-103" value="" style="endArrow=classic;html=1;rounded=1;strokeWidth=4;strokeColor=#000000;exitX=0.5;exitY=0;exitDx=0;exitDy=0;entryX=0;entryY=0.5;entryDx=0;entryDy=0;endFill=1;curved=0;" edge="1" parent="1" source="xk_BrVM3mgd0aOaVTL9x-98" target="xk_BrVM3mgd0aOaVTL9x-100">
          <mxGeometry width="50" height="50" relative="1" as="geometry">
            <mxPoint x="3011" y="3611" as="sourcePoint" />
            <mxPoint x="3032" y="3664" as="targetPoint" />
            <Array as="points">
              <mxPoint x="2646" y="3809" />
            </Array>
          </mxGeometry>
        </mxCell>
        <mxCell id="xk_BrVM3mgd0aOaVTL9x-104" value="&lt;font face=&quot;Comic Sans MS&quot;&gt;&lt;span style=&quot;font-size: 18px; text-wrap: wrap;&quot;&gt;&lt;b&gt;Percept&lt;/b&gt;&lt;/span&gt;&lt;/font&gt;" style="edgeLabel;html=1;align=center;verticalAlign=middle;resizable=0;points=[];labelBackgroundColor=none;" vertex="1" connectable="0" parent="xk_BrVM3mgd0aOaVTL9x-103">
          <mxGeometry x="0.1441" relative="1" as="geometry">
            <mxPoint x="52" y="-25" as="offset" />
          </mxGeometry>
        </mxCell>
        <mxCell id="xk_BrVM3mgd0aOaVTL9x-105" value="" style="endArrow=classic;html=1;rounded=1;strokeWidth=4;strokeColor=#000000;exitX=0;exitY=0.5;exitDx=0;exitDy=0;entryX=0.5;entryY=1;entryDx=0;entryDy=0;endFill=1;curved=0;" edge="1" parent="1" source="xk_BrVM3mgd0aOaVTL9x-102" target="xk_BrVM3mgd0aOaVTL9x-98">
          <mxGeometry width="50" height="50" relative="1" as="geometry">
            <mxPoint x="2664.33" y="3899.5" as="sourcePoint" />
            <mxPoint x="2653.83" y="4004" as="targetPoint" />
            <Array as="points">
              <mxPoint x="2646" y="4044" />
            </Array>
          </mxGeometry>
        </mxCell>
        <mxCell id="xk_BrVM3mgd0aOaVTL9x-106" value="" style="edgeStyle=orthogonalEdgeStyle;rounded=0;orthogonalLoop=1;jettySize=auto;html=1;" edge="1" parent="1" source="xk_BrVM3mgd0aOaVTL9x-107" target="xk_BrVM3mgd0aOaVTL9x-102">
          <mxGeometry relative="1" as="geometry" />
        </mxCell>
        <mxCell id="xk_BrVM3mgd0aOaVTL9x-107" value="&lt;font face=&quot;Comic Sans MS&quot;&gt;&lt;span style=&quot;font-size: 16px;&quot;&gt;&lt;b&gt;What is the World Like Now?&lt;/b&gt;&lt;/span&gt;&lt;/font&gt;" style="rounded=1;whiteSpace=wrap;html=1;fillColor=#006600;strokeColor=none;fontColor=#FFFFFF;arcSize=18;container=0;" vertex="1" parent="1">
          <mxGeometry x="2745.5899999999997" y="3897" width="262.34" height="50" as="geometry" />
        </mxCell>
        <mxCell id="xk_BrVM3mgd0aOaVTL9x-108" value="" style="endArrow=classic;html=1;rounded=0;strokeWidth=4;strokeColor=#000000;exitX=0.5;exitY=1;exitDx=0;exitDy=0;endFill=1;" edge="1" parent="1" source="xk_BrVM3mgd0aOaVTL9x-100" target="xk_BrVM3mgd0aOaVTL9x-107">
          <mxGeometry width="50" height="50" relative="1" as="geometry">
            <mxPoint x="3011" y="3611" as="sourcePoint" />
            <mxPoint x="3032" y="3664" as="targetPoint" />
          </mxGeometry>
        </mxCell>
        <mxCell id="xk_BrVM3mgd0aOaVTL9x-109" value="" style="endArrow=classic;html=1;rounded=0;strokeWidth=4;strokeColor=#000000;exitX=0.5;exitY=1;exitDx=0;exitDy=0;endFill=1;entryX=0.5;entryY=0;entryDx=0;entryDy=0;" edge="1" parent="1" source="xk_BrVM3mgd0aOaVTL9x-107" target="xk_BrVM3mgd0aOaVTL9x-102">
          <mxGeometry width="50" height="50" relative="1" as="geometry">
            <mxPoint x="2887" y="3833" as="sourcePoint" />
            <mxPoint x="2887" y="3914" as="targetPoint" />
          </mxGeometry>
        </mxCell>
        <mxCell id="xk_BrVM3mgd0aOaVTL9x-112" value="" style="endArrow=classic;html=1;rounded=0;strokeWidth=4;strokeColor=#000000;exitX=0;exitY=0.5;exitDx=0;exitDy=0;endFill=1;entryX=1;entryY=0.5;entryDx=0;entryDy=0;" edge="1" parent="1" target="xk_BrVM3mgd0aOaVTL9x-102">
          <mxGeometry width="50" height="50" relative="1" as="geometry">
            <mxPoint x="3040" y="4044" as="sourcePoint" />
            <mxPoint x="2887" y="4040" as="targetPoint" />
          </mxGeometry>
        </mxCell>
        <mxCell id="xk_BrVM3mgd0aOaVTL9x-113" value="&lt;font style=&quot;font-size: 16px;&quot; face=&quot;Comic Sans MS&quot;&gt;&lt;b style=&quot;&quot;&gt;Internal State (With Percept History)&lt;/b&gt;&lt;/font&gt;" style="rounded=1;whiteSpace=wrap;html=1;fillColor=#4C0099;strokeColor=none;fontColor=#FFFFFF;arcSize=18;container=0;" vertex="1" parent="1">
          <mxGeometry x="3040" y="3850" width="330" height="48" as="geometry" />
        </mxCell>
        <mxCell id="xk_BrVM3mgd0aOaVTL9x-114" value="&lt;font face=&quot;Comic Sans MS&quot; style=&quot;font-size: 16px;&quot;&gt;&lt;b style=&quot;&quot;&gt;If-then-Rules&lt;/b&gt;&lt;/font&gt;" style="rounded=1;whiteSpace=wrap;html=1;fillColor=#CCCCFF;strokeColor=none;fontColor=#000000;arcSize=18;container=0;" vertex="1" parent="1">
          <mxGeometry x="3040" y="4027.5" width="280" height="31" as="geometry" />
        </mxCell>
        <mxCell id="xk_BrVM3mgd0aOaVTL9x-115" value="&lt;font style=&quot;font-size: 16px;&quot; face=&quot;Comic Sans MS&quot;&gt;&lt;b style=&quot;&quot;&gt;How does my action affect the States?&lt;/b&gt;&lt;/font&gt;" style="rounded=1;whiteSpace=wrap;html=1;fillColor=#4C0099;strokeColor=none;fontColor=#FFFFFF;arcSize=18;container=0;" vertex="1" parent="1">
          <mxGeometry x="3040" y="3960" width="330" height="48" as="geometry" />
        </mxCell>
        <mxCell id="xk_BrVM3mgd0aOaVTL9x-116" value="" style="endArrow=classic;html=1;rounded=1;strokeWidth=4;strokeColor=#000000;exitX=0.75;exitY=0;exitDx=0;exitDy=0;endFill=1;entryX=0;entryY=0.5;entryDx=0;entryDy=0;curved=0;" edge="1" parent="1" source="xk_BrVM3mgd0aOaVTL9x-107" target="xk_BrVM3mgd0aOaVTL9x-113">
          <mxGeometry width="50" height="50" relative="1" as="geometry">
            <mxPoint x="3050" y="3654" as="sourcePoint" />
            <mxPoint x="2944" y="3654" as="targetPoint" />
            <Array as="points">
              <mxPoint x="2942" y="3874" />
            </Array>
          </mxGeometry>
        </mxCell>
        <mxCell id="xk_BrVM3mgd0aOaVTL9x-117" value="" style="endArrow=classic;html=1;rounded=1;strokeWidth=4;strokeColor=#000000;exitX=0;exitY=0.5;exitDx=0;exitDy=0;endFill=1;entryX=0.75;entryY=1;entryDx=0;entryDy=0;curved=0;" edge="1" parent="1" source="xk_BrVM3mgd0aOaVTL9x-115" target="xk_BrVM3mgd0aOaVTL9x-107">
          <mxGeometry width="50" height="50" relative="1" as="geometry">
            <mxPoint x="2952" y="3914" as="sourcePoint" />
            <mxPoint x="3050" y="3884" as="targetPoint" />
            <Array as="points">
              <mxPoint x="2942" y="3984" />
            </Array>
          </mxGeometry>
        </mxCell>
        <mxCell id="xk_BrVM3mgd0aOaVTL9x-118" value="&lt;font face=&quot;Comic Sans MS&quot;&gt;&lt;span style=&quot;font-size: 15px;&quot;&gt;&lt;b&gt;Partial Observability, where the model does only receives partial information and the full state of the world is hidden&lt;/b&gt;&lt;/span&gt;&lt;/font&gt;" style="rounded=1;whiteSpace=wrap;html=1;fillColor=#FFFF00;strokeColor=none;fontColor=#000000;arcSize=10;container=0;spacing=10;" vertex="1" parent="1">
          <mxGeometry x="3040" y="3774" width="330" height="64.36" as="geometry" />
        </mxCell>
        <mxCell id="xk_BrVM3mgd0aOaVTL9x-119" value="" style="endArrow=classic;html=1;rounded=0;strokeWidth=4;strokeColor=#000000;exitX=0.5;exitY=1;exitDx=0;exitDy=0;endFill=1;entryX=0.5;entryY=0;entryDx=0;entryDy=0;" edge="1" parent="1" source="xk_BrVM3mgd0aOaVTL9x-113" target="xk_BrVM3mgd0aOaVTL9x-115">
          <mxGeometry width="50" height="50" relative="1" as="geometry">
            <mxPoint x="2887" y="3957" as="sourcePoint" />
            <mxPoint x="2887" y="4040" as="targetPoint" />
          </mxGeometry>
        </mxCell>
        <mxCell id="xk_BrVM3mgd0aOaVTL9x-141" value="&lt;font face=&quot;Comic Sans MS&quot; style=&quot;font-size: 16px;&quot;&gt;&lt;b style=&quot;&quot;&gt;Type 1&lt;/b&gt;&lt;/font&gt;" style="rounded=1;whiteSpace=wrap;html=1;fillColor=#33FFFF;strokeColor=none;fontColor=#000000;arcSize=18;container=0;" vertex="1" parent="1">
          <mxGeometry x="2570" y="3320" width="150" height="30" as="geometry" />
        </mxCell>
        <mxCell id="xk_BrVM3mgd0aOaVTL9x-142" value="&lt;font face=&quot;Comic Sans MS&quot; style=&quot;font-size: 16px;&quot;&gt;&lt;b style=&quot;&quot;&gt;Type 2&lt;/b&gt;&lt;/font&gt;" style="rounded=1;whiteSpace=wrap;html=1;fillColor=#33FFFF;strokeColor=none;fontColor=#000000;arcSize=18;container=0;" vertex="1" parent="1">
          <mxGeometry x="2570.5" y="3720" width="150" height="30" as="geometry" />
        </mxCell>
        <mxCell id="xk_BrVM3mgd0aOaVTL9x-165" value="" style="rounded=1;whiteSpace=wrap;html=1;fillColor=#99FFFF;strokeColor=none;fontColor=#000000;arcSize=10;container=0;" vertex="1" parent="1">
          <mxGeometry x="2570" y="4157" width="150" height="330" as="geometry" />
        </mxCell>
        <mxCell id="xk_BrVM3mgd0aOaVTL9x-166" value="&lt;b style=&quot;font-family: &amp;quot;Comic Sans MS&amp;quot;; font-size: 18px;&quot;&gt;Environment&lt;/b&gt;" style="ellipse;whiteSpace=wrap;html=1;aspect=fixed;fillStyle=auto;gradientColor=none;fillColor=#CCFFFF;shadow=0;strokeWidth=2;container=0;fontColor=#000000;strokeColor=#000000;" vertex="1" parent="1">
          <mxGeometry x="2588" y="4268.5" width="115" height="115" as="geometry" />
        </mxCell>
        <mxCell id="xk_BrVM3mgd0aOaVTL9x-167" value="" style="rounded=1;whiteSpace=wrap;html=1;fillColor=#E6FFCC;strokeColor=none;fontColor=#000000;arcSize=5;container=0;" vertex="1" parent="1">
          <mxGeometry x="2729.99" y="4157" width="650.01" height="330" as="geometry" />
        </mxCell>
        <mxCell id="xk_BrVM3mgd0aOaVTL9x-168" value="&lt;font face=&quot;Comic Sans MS&quot;&gt;&lt;span style=&quot;font-size: 16px;&quot;&gt;&lt;b&gt;Sensors&lt;/b&gt;&lt;/span&gt;&lt;/font&gt;" style="rounded=1;whiteSpace=wrap;html=1;fillColor=#002040;strokeColor=none;fontColor=#FFFFFF;arcSize=50;container=0;" vertex="1" parent="1">
          <mxGeometry x="2819.2599999999998" y="4192" width="115" height="29" as="geometry" />
        </mxCell>
        <mxCell id="xk_BrVM3mgd0aOaVTL9x-169" value="&lt;font face=&quot;Comic Sans MS&quot; style=&quot;font-size: 16px;&quot;&gt;&lt;b style=&quot;&quot;&gt;Goal-Based Agent&lt;/b&gt;&lt;/font&gt;" style="rounded=1;whiteSpace=wrap;html=1;fillColor=#80FF00;strokeColor=none;fontColor=#000000;arcSize=18;container=0;" vertex="1" parent="1">
          <mxGeometry x="2729.57" y="4117" width="650.43" height="30" as="geometry" />
        </mxCell>
        <mxCell id="xk_BrVM3mgd0aOaVTL9x-170" value="&lt;font face=&quot;Comic Sans MS&quot;&gt;&lt;span style=&quot;font-size: 16px;&quot;&gt;&lt;b&gt;Actuators&lt;/b&gt;&lt;/span&gt;&lt;/font&gt;" style="rounded=1;whiteSpace=wrap;html=1;fillColor=#002040;strokeColor=none;fontColor=#FFFFFF;arcSize=50;container=0;" vertex="1" parent="1">
          <mxGeometry x="2819.49" y="4426.5" width="115" height="29" as="geometry" />
        </mxCell>
        <mxCell id="xk_BrVM3mgd0aOaVTL9x-171" value="" style="endArrow=classic;html=1;rounded=1;strokeWidth=4;strokeColor=#000000;exitX=0.5;exitY=0;exitDx=0;exitDy=0;entryX=0;entryY=0.5;entryDx=0;entryDy=0;endFill=1;curved=0;" edge="1" parent="1" source="xk_BrVM3mgd0aOaVTL9x-166" target="xk_BrVM3mgd0aOaVTL9x-168">
          <mxGeometry width="50" height="50" relative="1" as="geometry">
            <mxPoint x="3011" y="4008" as="sourcePoint" />
            <mxPoint x="3032" y="4061" as="targetPoint" />
            <Array as="points">
              <mxPoint x="2646" y="4206" />
            </Array>
          </mxGeometry>
        </mxCell>
        <mxCell id="xk_BrVM3mgd0aOaVTL9x-172" value="&lt;font face=&quot;Comic Sans MS&quot;&gt;&lt;span style=&quot;font-size: 18px; text-wrap: wrap;&quot;&gt;&lt;b&gt;Percept&lt;/b&gt;&lt;/span&gt;&lt;/font&gt;" style="edgeLabel;html=1;align=center;verticalAlign=middle;resizable=0;points=[];labelBackgroundColor=none;" vertex="1" connectable="0" parent="xk_BrVM3mgd0aOaVTL9x-171">
          <mxGeometry x="0.1441" relative="1" as="geometry">
            <mxPoint x="52" y="-25" as="offset" />
          </mxGeometry>
        </mxCell>
        <mxCell id="xk_BrVM3mgd0aOaVTL9x-173" value="" style="endArrow=classic;html=1;rounded=1;strokeWidth=4;strokeColor=#000000;exitX=0;exitY=0.5;exitDx=0;exitDy=0;entryX=0.5;entryY=1;entryDx=0;entryDy=0;endFill=1;curved=0;" edge="1" parent="1" source="xk_BrVM3mgd0aOaVTL9x-170" target="xk_BrVM3mgd0aOaVTL9x-166">
          <mxGeometry width="50" height="50" relative="1" as="geometry">
            <mxPoint x="2664.33" y="4296.5" as="sourcePoint" />
            <mxPoint x="2653.83" y="4401" as="targetPoint" />
            <Array as="points">
              <mxPoint x="2646" y="4441" />
            </Array>
          </mxGeometry>
        </mxCell>
        <mxCell id="xk_BrVM3mgd0aOaVTL9x-174" value="" style="edgeStyle=orthogonalEdgeStyle;rounded=0;orthogonalLoop=1;jettySize=auto;html=1;" edge="1" parent="1" source="xk_BrVM3mgd0aOaVTL9x-175" target="xk_BrVM3mgd0aOaVTL9x-170">
          <mxGeometry relative="1" as="geometry" />
        </mxCell>
        <mxCell id="xk_BrVM3mgd0aOaVTL9x-175" value="&lt;font face=&quot;Comic Sans MS&quot;&gt;&lt;span style=&quot;font-size: 16px;&quot;&gt;&lt;b&gt;What is the World Like Now?&lt;/b&gt;&lt;/span&gt;&lt;/font&gt;" style="rounded=1;whiteSpace=wrap;html=1;fillColor=#006600;strokeColor=none;fontColor=#FFFFFF;arcSize=18;container=0;" vertex="1" parent="1">
          <mxGeometry x="2745.5899999999997" y="4294" width="262.34" height="50" as="geometry" />
        </mxCell>
        <mxCell id="xk_BrVM3mgd0aOaVTL9x-176" value="" style="endArrow=classic;html=1;rounded=0;strokeWidth=4;strokeColor=#000000;exitX=0.5;exitY=1;exitDx=0;exitDy=0;endFill=1;" edge="1" parent="1" source="xk_BrVM3mgd0aOaVTL9x-168" target="xk_BrVM3mgd0aOaVTL9x-175">
          <mxGeometry width="50" height="50" relative="1" as="geometry">
            <mxPoint x="3011" y="4008" as="sourcePoint" />
            <mxPoint x="3032" y="4061" as="targetPoint" />
          </mxGeometry>
        </mxCell>
        <mxCell id="xk_BrVM3mgd0aOaVTL9x-177" value="" style="endArrow=classic;html=1;rounded=0;strokeWidth=4;strokeColor=#000000;exitX=0.5;exitY=1;exitDx=0;exitDy=0;endFill=1;entryX=0.5;entryY=0;entryDx=0;entryDy=0;" edge="1" parent="1" source="xk_BrVM3mgd0aOaVTL9x-175" target="xk_BrVM3mgd0aOaVTL9x-170">
          <mxGeometry width="50" height="50" relative="1" as="geometry">
            <mxPoint x="2887" y="4230" as="sourcePoint" />
            <mxPoint x="2887" y="4311" as="targetPoint" />
          </mxGeometry>
        </mxCell>
        <mxCell id="xk_BrVM3mgd0aOaVTL9x-178" value="" style="endArrow=classic;html=1;rounded=0;strokeWidth=4;strokeColor=#000000;exitX=0;exitY=0.5;exitDx=0;exitDy=0;endFill=1;entryX=1;entryY=0.5;entryDx=0;entryDy=0;" edge="1" parent="1" target="xk_BrVM3mgd0aOaVTL9x-170">
          <mxGeometry width="50" height="50" relative="1" as="geometry">
            <mxPoint x="3040" y="4441" as="sourcePoint" />
            <mxPoint x="2887" y="4437" as="targetPoint" />
          </mxGeometry>
        </mxCell>
        <mxCell id="xk_BrVM3mgd0aOaVTL9x-179" value="&lt;font style=&quot;font-size: 16px;&quot; face=&quot;Comic Sans MS&quot;&gt;&lt;b style=&quot;&quot;&gt;Internal State (With Percept History)&lt;/b&gt;&lt;/font&gt;" style="rounded=1;whiteSpace=wrap;html=1;fillColor=#4C0099;strokeColor=none;fontColor=#FFFFFF;arcSize=18;container=0;" vertex="1" parent="1">
          <mxGeometry x="3040" y="4247" width="330" height="48" as="geometry" />
        </mxCell>
        <mxCell id="xk_BrVM3mgd0aOaVTL9x-180" value="&lt;font style=&quot;font-size: 16px;&quot; face=&quot;Comic Sans MS&quot;&gt;&lt;b style=&quot;&quot;&gt;Goal Driven &#39;Reasoning&#39;&lt;/b&gt;&lt;/font&gt;" style="rounded=1;whiteSpace=wrap;html=1;fillColor=#990099;strokeColor=none;fontColor=#FFFFFF;arcSize=18;container=0;" vertex="1" parent="1">
          <mxGeometry x="3040" y="4424.5" width="280" height="31" as="geometry" />
        </mxCell>
        <mxCell id="xk_BrVM3mgd0aOaVTL9x-181" value="&lt;font style=&quot;font-size: 16px;&quot; face=&quot;Comic Sans MS&quot;&gt;&lt;b style=&quot;&quot;&gt;How does my action affect the States?&lt;/b&gt;&lt;/font&gt;" style="rounded=1;whiteSpace=wrap;html=1;fillColor=#4C0099;strokeColor=none;fontColor=#FFFFFF;arcSize=18;container=0;" vertex="1" parent="1">
          <mxGeometry x="3040" y="4357" width="330" height="48" as="geometry" />
        </mxCell>
        <mxCell id="xk_BrVM3mgd0aOaVTL9x-182" value="" style="endArrow=classic;html=1;rounded=1;strokeWidth=4;strokeColor=#000000;exitX=0.75;exitY=0;exitDx=0;exitDy=0;endFill=1;entryX=0;entryY=0.5;entryDx=0;entryDy=0;curved=0;" edge="1" parent="1" source="xk_BrVM3mgd0aOaVTL9x-175" target="xk_BrVM3mgd0aOaVTL9x-179">
          <mxGeometry width="50" height="50" relative="1" as="geometry">
            <mxPoint x="3050" y="4051" as="sourcePoint" />
            <mxPoint x="2944" y="4051" as="targetPoint" />
            <Array as="points">
              <mxPoint x="2942" y="4271" />
            </Array>
          </mxGeometry>
        </mxCell>
        <mxCell id="xk_BrVM3mgd0aOaVTL9x-183" value="" style="endArrow=classic;html=1;rounded=1;strokeWidth=4;strokeColor=#000000;exitX=0;exitY=0.5;exitDx=0;exitDy=0;endFill=1;entryX=0.75;entryY=1;entryDx=0;entryDy=0;curved=0;" edge="1" parent="1" source="xk_BrVM3mgd0aOaVTL9x-181" target="xk_BrVM3mgd0aOaVTL9x-175">
          <mxGeometry width="50" height="50" relative="1" as="geometry">
            <mxPoint x="2952" y="4311" as="sourcePoint" />
            <mxPoint x="3050" y="4281" as="targetPoint" />
            <Array as="points">
              <mxPoint x="2942" y="4381" />
            </Array>
          </mxGeometry>
        </mxCell>
        <mxCell id="xk_BrVM3mgd0aOaVTL9x-184" value="&lt;font face=&quot;Comic Sans MS&quot;&gt;&lt;span style=&quot;font-size: 15px;&quot;&gt;&lt;b&gt;Model will ask, am I doing the Action that can get me to the Goals?&lt;/b&gt;&lt;/span&gt;&lt;/font&gt;" style="rounded=1;whiteSpace=wrap;html=1;fillColor=#FFFF00;strokeColor=none;fontColor=#000000;arcSize=10;container=0;spacing=10;" vertex="1" parent="1">
          <mxGeometry x="3040" y="4171" width="330" height="64.36" as="geometry" />
        </mxCell>
        <mxCell id="xk_BrVM3mgd0aOaVTL9x-185" value="" style="endArrow=classic;html=1;rounded=0;strokeWidth=4;strokeColor=#000000;exitX=0.5;exitY=1;exitDx=0;exitDy=0;endFill=1;entryX=0.5;entryY=0;entryDx=0;entryDy=0;" edge="1" parent="1" source="xk_BrVM3mgd0aOaVTL9x-179" target="xk_BrVM3mgd0aOaVTL9x-181">
          <mxGeometry width="50" height="50" relative="1" as="geometry">
            <mxPoint x="2887" y="4354" as="sourcePoint" />
            <mxPoint x="2887" y="4437" as="targetPoint" />
          </mxGeometry>
        </mxCell>
        <mxCell id="xk_BrVM3mgd0aOaVTL9x-186" value="&lt;font face=&quot;Comic Sans MS&quot; style=&quot;font-size: 16px;&quot;&gt;&lt;b style=&quot;&quot;&gt;Type 3&lt;/b&gt;&lt;/font&gt;" style="rounded=1;whiteSpace=wrap;html=1;fillColor=#33FFFF;strokeColor=none;fontColor=#000000;arcSize=18;container=0;" vertex="1" parent="1">
          <mxGeometry x="2570.5" y="4117" width="150" height="30" as="geometry" />
        </mxCell>
        <mxCell id="xk_BrVM3mgd0aOaVTL9x-187" value="" style="rounded=1;whiteSpace=wrap;html=1;fillColor=#99FFFF;strokeColor=none;fontColor=#000000;arcSize=10;container=0;" vertex="1" parent="1">
          <mxGeometry x="2570.5" y="4557" width="150" height="330" as="geometry" />
        </mxCell>
        <mxCell id="xk_BrVM3mgd0aOaVTL9x-188" value="&lt;b style=&quot;font-family: &amp;quot;Comic Sans MS&amp;quot;; font-size: 18px;&quot;&gt;Environment&lt;/b&gt;" style="ellipse;whiteSpace=wrap;html=1;aspect=fixed;fillStyle=auto;gradientColor=none;fillColor=#CCFFFF;shadow=0;strokeWidth=2;container=0;fontColor=#000000;strokeColor=#000000;" vertex="1" parent="1">
          <mxGeometry x="2588.5" y="4668.5" width="115" height="115" as="geometry" />
        </mxCell>
        <mxCell id="xk_BrVM3mgd0aOaVTL9x-189" value="" style="rounded=1;whiteSpace=wrap;html=1;fillColor=#E6FFCC;strokeColor=none;fontColor=#000000;arcSize=5;container=0;" vertex="1" parent="1">
          <mxGeometry x="2730.49" y="4557" width="650.01" height="330" as="geometry" />
        </mxCell>
        <mxCell id="xk_BrVM3mgd0aOaVTL9x-190" value="&lt;font face=&quot;Comic Sans MS&quot;&gt;&lt;span style=&quot;font-size: 16px;&quot;&gt;&lt;b&gt;Sensors&lt;/b&gt;&lt;/span&gt;&lt;/font&gt;" style="rounded=1;whiteSpace=wrap;html=1;fillColor=#002040;strokeColor=none;fontColor=#FFFFFF;arcSize=50;container=0;" vertex="1" parent="1">
          <mxGeometry x="2819.7599999999998" y="4592" width="115" height="29" as="geometry" />
        </mxCell>
        <mxCell id="xk_BrVM3mgd0aOaVTL9x-191" value="&lt;font face=&quot;Comic Sans MS&quot; style=&quot;font-size: 16px;&quot;&gt;&lt;b style=&quot;&quot;&gt;Utility-Based Agent&lt;/b&gt;&lt;/font&gt;" style="rounded=1;whiteSpace=wrap;html=1;fillColor=#80FF00;strokeColor=none;fontColor=#000000;arcSize=18;container=0;" vertex="1" parent="1">
          <mxGeometry x="2730.07" y="4517" width="650.43" height="30" as="geometry" />
        </mxCell>
        <mxCell id="xk_BrVM3mgd0aOaVTL9x-192" value="&lt;font face=&quot;Comic Sans MS&quot;&gt;&lt;span style=&quot;font-size: 16px;&quot;&gt;&lt;b&gt;Actuators&lt;/b&gt;&lt;/span&gt;&lt;/font&gt;" style="rounded=1;whiteSpace=wrap;html=1;fillColor=#002040;strokeColor=none;fontColor=#FFFFFF;arcSize=50;container=0;" vertex="1" parent="1">
          <mxGeometry x="2819.99" y="4826.5" width="115" height="29" as="geometry" />
        </mxCell>
        <mxCell id="xk_BrVM3mgd0aOaVTL9x-193" value="" style="endArrow=classic;html=1;rounded=1;strokeWidth=4;strokeColor=#000000;exitX=0.5;exitY=0;exitDx=0;exitDy=0;entryX=0;entryY=0.5;entryDx=0;entryDy=0;endFill=1;curved=0;" edge="1" parent="1" source="xk_BrVM3mgd0aOaVTL9x-188" target="xk_BrVM3mgd0aOaVTL9x-190">
          <mxGeometry width="50" height="50" relative="1" as="geometry">
            <mxPoint x="3011.5" y="4408" as="sourcePoint" />
            <mxPoint x="3032.5" y="4461" as="targetPoint" />
            <Array as="points">
              <mxPoint x="2646.5" y="4606" />
            </Array>
          </mxGeometry>
        </mxCell>
        <mxCell id="xk_BrVM3mgd0aOaVTL9x-194" value="&lt;font face=&quot;Comic Sans MS&quot;&gt;&lt;span style=&quot;font-size: 18px; text-wrap: wrap;&quot;&gt;&lt;b&gt;Percept&lt;/b&gt;&lt;/span&gt;&lt;/font&gt;" style="edgeLabel;html=1;align=center;verticalAlign=middle;resizable=0;points=[];labelBackgroundColor=none;" vertex="1" connectable="0" parent="xk_BrVM3mgd0aOaVTL9x-193">
          <mxGeometry x="0.1441" relative="1" as="geometry">
            <mxPoint x="52" y="-25" as="offset" />
          </mxGeometry>
        </mxCell>
        <mxCell id="xk_BrVM3mgd0aOaVTL9x-195" value="" style="endArrow=classic;html=1;rounded=1;strokeWidth=4;strokeColor=#000000;exitX=0;exitY=0.5;exitDx=0;exitDy=0;entryX=0.5;entryY=1;entryDx=0;entryDy=0;endFill=1;curved=0;" edge="1" parent="1" source="xk_BrVM3mgd0aOaVTL9x-192" target="xk_BrVM3mgd0aOaVTL9x-188">
          <mxGeometry width="50" height="50" relative="1" as="geometry">
            <mxPoint x="2664.83" y="4696.5" as="sourcePoint" />
            <mxPoint x="2654.33" y="4801" as="targetPoint" />
            <Array as="points">
              <mxPoint x="2646.5" y="4841" />
            </Array>
          </mxGeometry>
        </mxCell>
        <mxCell id="xk_BrVM3mgd0aOaVTL9x-196" value="" style="edgeStyle=orthogonalEdgeStyle;rounded=0;orthogonalLoop=1;jettySize=auto;html=1;" edge="1" parent="1" source="xk_BrVM3mgd0aOaVTL9x-197" target="xk_BrVM3mgd0aOaVTL9x-192">
          <mxGeometry relative="1" as="geometry" />
        </mxCell>
        <mxCell id="xk_BrVM3mgd0aOaVTL9x-197" value="&lt;font face=&quot;Comic Sans MS&quot;&gt;&lt;span style=&quot;font-size: 16px;&quot;&gt;&lt;b&gt;What is the World Like Now?&lt;/b&gt;&lt;/span&gt;&lt;/font&gt;" style="rounded=1;whiteSpace=wrap;html=1;fillColor=#006600;strokeColor=none;fontColor=#FFFFFF;arcSize=18;container=0;" vertex="1" parent="1">
          <mxGeometry x="2746.0899999999997" y="4694" width="262.34" height="50" as="geometry" />
        </mxCell>
        <mxCell id="xk_BrVM3mgd0aOaVTL9x-198" value="" style="endArrow=classic;html=1;rounded=0;strokeWidth=4;strokeColor=#000000;exitX=0.5;exitY=1;exitDx=0;exitDy=0;endFill=1;" edge="1" parent="1" source="xk_BrVM3mgd0aOaVTL9x-190" target="xk_BrVM3mgd0aOaVTL9x-197">
          <mxGeometry width="50" height="50" relative="1" as="geometry">
            <mxPoint x="3011.5" y="4408" as="sourcePoint" />
            <mxPoint x="3032.5" y="4461" as="targetPoint" />
          </mxGeometry>
        </mxCell>
        <mxCell id="xk_BrVM3mgd0aOaVTL9x-199" value="" style="endArrow=classic;html=1;rounded=0;strokeWidth=4;strokeColor=#000000;exitX=0.5;exitY=1;exitDx=0;exitDy=0;endFill=1;entryX=0.5;entryY=0;entryDx=0;entryDy=0;" edge="1" parent="1" source="xk_BrVM3mgd0aOaVTL9x-197" target="xk_BrVM3mgd0aOaVTL9x-192">
          <mxGeometry width="50" height="50" relative="1" as="geometry">
            <mxPoint x="2887.5" y="4630" as="sourcePoint" />
            <mxPoint x="2887.5" y="4711" as="targetPoint" />
          </mxGeometry>
        </mxCell>
        <mxCell id="xk_BrVM3mgd0aOaVTL9x-200" value="" style="endArrow=classic;html=1;rounded=0;strokeWidth=4;strokeColor=#000000;exitX=0;exitY=0.5;exitDx=0;exitDy=0;endFill=1;entryX=1;entryY=0.5;entryDx=0;entryDy=0;" edge="1" parent="1" target="xk_BrVM3mgd0aOaVTL9x-192">
          <mxGeometry width="50" height="50" relative="1" as="geometry">
            <mxPoint x="3040.5" y="4841" as="sourcePoint" />
            <mxPoint x="2887.5" y="4837" as="targetPoint" />
          </mxGeometry>
        </mxCell>
        <mxCell id="xk_BrVM3mgd0aOaVTL9x-201" value="&lt;font style=&quot;font-size: 16px;&quot; face=&quot;Comic Sans MS&quot;&gt;&lt;b style=&quot;&quot;&gt;Internal State (With Percept History)&lt;/b&gt;&lt;/font&gt;" style="rounded=1;whiteSpace=wrap;html=1;fillColor=#4C0099;strokeColor=none;fontColor=#FFFFFF;arcSize=18;container=0;" vertex="1" parent="1">
          <mxGeometry x="3040.5" y="4647" width="330" height="48" as="geometry" />
        </mxCell>
        <mxCell id="xk_BrVM3mgd0aOaVTL9x-202" value="&lt;font style=&quot;font-size: 16px;&quot; face=&quot;Comic Sans MS&quot;&gt;&lt;b style=&quot;&quot;&gt;Utility-Driven &#39;Reasoning&#39;&lt;/b&gt;&lt;/font&gt;" style="rounded=1;whiteSpace=wrap;html=1;fillColor=#990099;strokeColor=none;fontColor=#FFFFFF;arcSize=18;container=0;" vertex="1" parent="1">
          <mxGeometry x="3040.5" y="4824.5" width="280" height="31" as="geometry" />
        </mxCell>
        <mxCell id="xk_BrVM3mgd0aOaVTL9x-203" value="&lt;font style=&quot;font-size: 16px;&quot; face=&quot;Comic Sans MS&quot;&gt;&lt;b style=&quot;&quot;&gt;How does my action affect the States?&lt;/b&gt;&lt;/font&gt;" style="rounded=1;whiteSpace=wrap;html=1;fillColor=#4C0099;strokeColor=none;fontColor=#FFFFFF;arcSize=18;container=0;" vertex="1" parent="1">
          <mxGeometry x="3040.5" y="4757" width="330" height="48" as="geometry" />
        </mxCell>
        <mxCell id="xk_BrVM3mgd0aOaVTL9x-204" value="" style="endArrow=classic;html=1;rounded=1;strokeWidth=4;strokeColor=#000000;exitX=0.75;exitY=0;exitDx=0;exitDy=0;endFill=1;entryX=0;entryY=0.5;entryDx=0;entryDy=0;curved=0;" edge="1" parent="1" source="xk_BrVM3mgd0aOaVTL9x-197" target="xk_BrVM3mgd0aOaVTL9x-201">
          <mxGeometry width="50" height="50" relative="1" as="geometry">
            <mxPoint x="3050.5" y="4451" as="sourcePoint" />
            <mxPoint x="2944.5" y="4451" as="targetPoint" />
            <Array as="points">
              <mxPoint x="2942.5" y="4671" />
            </Array>
          </mxGeometry>
        </mxCell>
        <mxCell id="xk_BrVM3mgd0aOaVTL9x-205" value="" style="endArrow=classic;html=1;rounded=1;strokeWidth=4;strokeColor=#000000;exitX=0;exitY=0.5;exitDx=0;exitDy=0;endFill=1;entryX=0.75;entryY=1;entryDx=0;entryDy=0;curved=0;" edge="1" parent="1" source="xk_BrVM3mgd0aOaVTL9x-203" target="xk_BrVM3mgd0aOaVTL9x-197">
          <mxGeometry width="50" height="50" relative="1" as="geometry">
            <mxPoint x="2952.5" y="4711" as="sourcePoint" />
            <mxPoint x="3050.5" y="4681" as="targetPoint" />
            <Array as="points">
              <mxPoint x="2942.5" y="4781" />
            </Array>
          </mxGeometry>
        </mxCell>
        <mxCell id="xk_BrVM3mgd0aOaVTL9x-206" value="&lt;font face=&quot;Comic Sans MS&quot;&gt;&lt;span style=&quot;font-size: 15px;&quot;&gt;&lt;b&gt;Model will ask, am I doing the Action that can Optimise my Utiltiies?&lt;/b&gt;&lt;/span&gt;&lt;/font&gt;" style="rounded=1;whiteSpace=wrap;html=1;fillColor=#FFFF00;strokeColor=none;fontColor=#000000;arcSize=10;container=0;spacing=10;" vertex="1" parent="1">
          <mxGeometry x="3040.5" y="4571" width="330" height="64.36" as="geometry" />
        </mxCell>
        <mxCell id="xk_BrVM3mgd0aOaVTL9x-207" value="" style="endArrow=classic;html=1;rounded=0;strokeWidth=4;strokeColor=#000000;exitX=0.5;exitY=1;exitDx=0;exitDy=0;endFill=1;entryX=0.5;entryY=0;entryDx=0;entryDy=0;" edge="1" parent="1" source="xk_BrVM3mgd0aOaVTL9x-201" target="xk_BrVM3mgd0aOaVTL9x-203">
          <mxGeometry width="50" height="50" relative="1" as="geometry">
            <mxPoint x="2887.5" y="4754" as="sourcePoint" />
            <mxPoint x="2887.5" y="4837" as="targetPoint" />
          </mxGeometry>
        </mxCell>
        <mxCell id="xk_BrVM3mgd0aOaVTL9x-208" value="&lt;font face=&quot;Comic Sans MS&quot; style=&quot;font-size: 16px;&quot;&gt;&lt;b style=&quot;&quot;&gt;Type 4&lt;/b&gt;&lt;/font&gt;" style="rounded=1;whiteSpace=wrap;html=1;fillColor=#33FFFF;strokeColor=none;fontColor=#000000;arcSize=18;container=0;" vertex="1" parent="1">
          <mxGeometry x="2571" y="4517" width="150" height="30" as="geometry" />
        </mxCell>
        <mxCell id="xk_BrVM3mgd0aOaVTL9x-209" value="&lt;font face=&quot;Comic Sans MS&quot;&gt;&lt;span style=&quot;font-size: 18px; text-wrap: wrap;&quot;&gt;&lt;b&gt;Action&lt;/b&gt;&lt;/span&gt;&lt;/font&gt;" style="edgeLabel;html=1;align=center;verticalAlign=middle;resizable=0;points=[];labelBackgroundColor=none;" vertex="1" connectable="0" parent="1">
          <mxGeometry x="2769.9976973175553" y="3623.3597936549627" as="geometry" />
        </mxCell>
        <mxCell id="xk_BrVM3mgd0aOaVTL9x-211" value="&lt;font face=&quot;Comic Sans MS&quot;&gt;&lt;span style=&quot;font-size: 18px; text-wrap: wrap;&quot;&gt;&lt;b&gt;Action&lt;/b&gt;&lt;/span&gt;&lt;/font&gt;" style="edgeLabel;html=1;align=center;verticalAlign=middle;resizable=0;points=[];labelBackgroundColor=none;" vertex="1" connectable="0" parent="1">
          <mxGeometry x="2769.9976973175553" y="4019.9997936549626" as="geometry" />
        </mxCell>
        <mxCell id="xk_BrVM3mgd0aOaVTL9x-212" value="&lt;font face=&quot;Comic Sans MS&quot;&gt;&lt;span style=&quot;font-size: 18px; text-wrap: wrap;&quot;&gt;&lt;b&gt;Action&lt;/b&gt;&lt;/span&gt;&lt;/font&gt;" style="edgeLabel;html=1;align=center;verticalAlign=middle;resizable=0;points=[];labelBackgroundColor=none;" vertex="1" connectable="0" parent="1">
          <mxGeometry x="2769.9976973175553" y="4424.499793654963" as="geometry">
            <mxPoint x="4" y="-2" as="offset" />
          </mxGeometry>
        </mxCell>
        <mxCell id="xk_BrVM3mgd0aOaVTL9x-215" value="&lt;font face=&quot;Comic Sans MS&quot;&gt;&lt;span style=&quot;font-size: 18px; text-wrap: wrap;&quot;&gt;&lt;b&gt;Action&lt;/b&gt;&lt;/span&gt;&lt;/font&gt;" style="edgeLabel;html=1;align=center;verticalAlign=middle;resizable=0;points=[];labelBackgroundColor=none;" vertex="1" connectable="0" parent="1">
          <mxGeometry x="2769.9976973175553" y="4826.499793654963" as="geometry">
            <mxPoint x="4" y="-2" as="offset" />
          </mxGeometry>
        </mxCell>
        <mxCell id="xk_BrVM3mgd0aOaVTL9x-216" value="&lt;font style=&quot;font-size: 16px;&quot; face=&quot;Comic Sans MS&quot;&gt;&lt;b style=&quot;&quot;&gt;PEAS Framework for Artificial Intelligence (Self-Driving Car Example)&lt;/b&gt;&lt;/font&gt;" style="rounded=1;whiteSpace=wrap;html=1;fillColor=#330066;strokeColor=none;fontColor=#FFFFFF;arcSize=18;container=0;" vertex="1" parent="1">
          <mxGeometry x="3430" y="3320" width="800" height="30" as="geometry" />
        </mxCell>
        <mxCell id="xk_BrVM3mgd0aOaVTL9x-217" value="&lt;font style=&quot;font-size: 16px;&quot; face=&quot;Comic Sans MS&quot;&gt;&lt;b style=&quot;&quot;&gt;Performance&lt;/b&gt;&lt;/font&gt;&lt;div&gt;&lt;font style=&quot;font-size: 16px;&quot; face=&quot;Comic Sans MS&quot;&gt;&lt;b style=&quot;&quot;&gt;Measure&lt;/b&gt;&lt;/font&gt;&lt;/div&gt;" style="rounded=1;whiteSpace=wrap;html=1;fillColor=#4C0099;strokeColor=none;fontColor=#FFFFFF;arcSize=12;container=0;" vertex="1" parent="1">
          <mxGeometry x="3430" y="3357" width="130" height="80" as="geometry" />
        </mxCell>
        <mxCell id="xk_BrVM3mgd0aOaVTL9x-219" value="" style="rounded=1;whiteSpace=wrap;html=1;fillColor=#E5CCFF;strokeColor=none;fontColor=#FFFFFF;arcSize=11;container=0;" vertex="1" parent="1">
          <mxGeometry x="3570" y="3357" width="660" height="80" as="geometry" />
        </mxCell>
        <mxCell id="xk_BrVM3mgd0aOaVTL9x-221" value="&lt;b style=&quot;color: rgb(0, 0, 0); font-family: &amp;quot;Comic Sans MS&amp;quot;;&quot;&gt;&lt;font&gt;Safety: Avoid Accidents and Traffic Violations&lt;/font&gt;&lt;/b&gt;" style="rounded=1;whiteSpace=wrap;html=1;fillColor=#CC99FF;strokeColor=none;fontColor=#FFFFFF;arcSize=31;container=0;" vertex="1" parent="1">
          <mxGeometry x="3576" y="3363" width="320" height="30" as="geometry" />
        </mxCell>
        <mxCell id="xk_BrVM3mgd0aOaVTL9x-226" value="&lt;font face=&quot;Comic Sans MS&quot; color=&quot;#000000&quot;&gt;&lt;b&gt;Efficiency: Minimuse Travel Time and Energy&lt;/b&gt;&lt;/font&gt;" style="rounded=1;whiteSpace=wrap;html=1;fillColor=#CC99FF;strokeColor=none;fontColor=#FFFFFF;arcSize=31;container=0;" vertex="1" parent="1">
          <mxGeometry x="3905" y="3363" width="317.5" height="30" as="geometry" />
        </mxCell>
        <mxCell id="xk_BrVM3mgd0aOaVTL9x-227" value="&lt;b style=&quot;color: rgb(0, 0, 0); font-family: &amp;quot;Comic Sans MS&amp;quot;;&quot;&gt;&lt;font&gt;Legality: Comply with Traffic Laws&lt;/font&gt;&lt;/b&gt;" style="rounded=1;whiteSpace=wrap;html=1;fillColor=#CC99FF;strokeColor=none;fontColor=#FFFFFF;arcSize=31;container=0;" vertex="1" parent="1">
          <mxGeometry x="3576" y="3399" width="320" height="30" as="geometry" />
        </mxCell>
        <mxCell id="xk_BrVM3mgd0aOaVTL9x-228" value="&lt;font face=&quot;Comic Sans MS&quot; color=&quot;#000000&quot;&gt;&lt;b&gt;Comfort: Provide a Smooth Ried and Abrupt Stops&lt;/b&gt;&lt;/font&gt;" style="rounded=1;whiteSpace=wrap;html=1;fillColor=#CC99FF;strokeColor=none;fontColor=#FFFFFF;arcSize=31;container=0;" vertex="1" parent="1">
          <mxGeometry x="3905" y="3399" width="317.5" height="30" as="geometry" />
        </mxCell>
        <mxCell id="xk_BrVM3mgd0aOaVTL9x-229" value="&lt;font face=&quot;Comic Sans MS&quot;&gt;&lt;span style=&quot;font-size: 16px;&quot;&gt;&lt;b&gt;Environment&lt;/b&gt;&lt;/span&gt;&lt;/font&gt;" style="rounded=1;whiteSpace=wrap;html=1;fillColor=#4C0099;strokeColor=none;fontColor=#FFFFFF;arcSize=12;container=0;" vertex="1" parent="1">
          <mxGeometry x="3430" y="3443" width="130" height="80" as="geometry" />
        </mxCell>
        <mxCell id="xk_BrVM3mgd0aOaVTL9x-230" value="" style="rounded=1;whiteSpace=wrap;html=1;fillColor=#E5CCFF;strokeColor=none;fontColor=#FFFFFF;arcSize=11;container=0;" vertex="1" parent="1">
          <mxGeometry x="3570" y="3443" width="660" height="80" as="geometry" />
        </mxCell>
        <mxCell id="xk_BrVM3mgd0aOaVTL9x-231" value="&lt;span style=&quot;color: rgb(0, 0, 0); text-align: left;&quot;&gt;&lt;font style=&quot;font-size: 13px;&quot; face=&quot;Comic Sans MS&quot;&gt;&lt;b style=&quot;&quot;&gt;Urban roads with varying traffic conditions including cars, bicycles, pedestrians, and animals.&lt;/b&gt;&lt;/font&gt;&lt;/span&gt;" style="rounded=1;whiteSpace=wrap;html=1;fillColor=#CC99FF;strokeColor=none;fontColor=#FFFFFF;arcSize=31;container=0;labelBackgroundColor=none;" vertex="1" parent="1">
          <mxGeometry x="3576" y="3449" width="645" height="30" as="geometry" />
        </mxCell>
        <mxCell id="xk_BrVM3mgd0aOaVTL9x-235" value="&lt;span style=&quot;text-align: left;&quot;&gt;&lt;font face=&quot;Comic Sans MS&quot; style=&quot;font-size: 13px;&quot;&gt;&lt;b&gt;&amp;nbsp;Weather conditions that may vary significantly (rain, fog, snow).&amp;nbsp;&lt;/b&gt;&lt;/font&gt;&lt;/span&gt;" style="rounded=1;whiteSpace=wrap;html=1;fillColor=#CC99FF;strokeColor=none;fontColor=default;arcSize=31;container=0;labelBackgroundColor=none;" vertex="1" parent="1">
          <mxGeometry x="3576" y="3485" width="645" height="30" as="geometry" />
        </mxCell>
        <mxCell id="xk_BrVM3mgd0aOaVTL9x-236" value="&lt;font face=&quot;Comic Sans MS&quot;&gt;&lt;span style=&quot;font-size: 16px;&quot;&gt;&lt;b&gt;Actuators&lt;/b&gt;&lt;/span&gt;&lt;/font&gt;" style="rounded=1;whiteSpace=wrap;html=1;fillColor=#4C0099;strokeColor=none;fontColor=#FFFFFF;arcSize=12;container=0;" vertex="1" parent="1">
          <mxGeometry x="3430" y="3530" width="130" height="80" as="geometry" />
        </mxCell>
        <mxCell id="xk_BrVM3mgd0aOaVTL9x-242" value="&lt;font face=&quot;Comic Sans MS&quot;&gt;&lt;span style=&quot;font-size: 16px;&quot;&gt;&lt;b&gt;Sensors&lt;/b&gt;&lt;/span&gt;&lt;/font&gt;" style="rounded=1;whiteSpace=wrap;html=1;fillColor=#4C0099;strokeColor=none;fontColor=#FFFFFF;arcSize=12;container=0;" vertex="1" parent="1">
          <mxGeometry x="3430" y="3616" width="130" height="80" as="geometry" />
        </mxCell>
        <mxCell id="xk_BrVM3mgd0aOaVTL9x-246" value="" style="rounded=1;whiteSpace=wrap;html=1;fillColor=#E5CCFF;strokeColor=none;fontColor=#FFFFFF;arcSize=11;container=0;" vertex="1" parent="1">
          <mxGeometry x="3568.5" y="3530" width="660" height="80" as="geometry" />
        </mxCell>
        <mxCell id="xk_BrVM3mgd0aOaVTL9x-247" value="&lt;span style=&quot;color: rgb(0, 0, 0); text-align: left;&quot;&gt;&lt;b style=&quot;&quot;&gt;&lt;font style=&quot;font-size: 13px;&quot; face=&quot;Comic Sans MS&quot;&gt;Steering wheel, accelerator, brakes, turn indicators, horn, headlights, and tail lights.&lt;/font&gt;&lt;/b&gt;&lt;/span&gt;" style="rounded=1;whiteSpace=wrap;html=1;fillColor=#CC99FF;strokeColor=none;fontColor=#FFFFFF;arcSize=15;container=0;labelBackgroundColor=none;" vertex="1" parent="1">
          <mxGeometry x="3575.5" y="3538" width="645" height="64" as="geometry" />
        </mxCell>
        <mxCell id="xk_BrVM3mgd0aOaVTL9x-251" value="" style="rounded=1;whiteSpace=wrap;html=1;fillColor=#E5CCFF;strokeColor=none;fontColor=#FFFFFF;arcSize=11;container=0;" vertex="1" parent="1">
          <mxGeometry x="3568" y="3616" width="660" height="80" as="geometry" />
        </mxCell>
        <mxCell id="xk_BrVM3mgd0aOaVTL9x-252" value="&lt;span style=&quot;color: rgb(0, 0, 0); text-align: left;&quot;&gt;&lt;b style=&quot;&quot;&gt;&lt;font face=&quot;Comic Sans MS&quot; style=&quot;font-size: 13px;&quot;&gt;Cameras, lidar (light detection and ranging), radar, GPS, odometer, speedometer accelerometers, temperature sensors.&lt;/font&gt;&lt;/b&gt;&lt;/span&gt;" style="rounded=1;whiteSpace=wrap;html=1;fillColor=#CC99FF;strokeColor=none;fontColor=#FFFFFF;arcSize=15;container=0;labelBackgroundColor=none;" vertex="1" parent="1">
          <mxGeometry x="3575" y="3624" width="645" height="64" as="geometry" />
        </mxCell>
        <mxCell id="xk_BrVM3mgd0aOaVTL9x-254" value="&lt;font face=&quot;Comic Sans MS&quot;&gt;&lt;span style=&quot;font-size: 16px;&quot;&gt;&lt;b&gt;Characteristic of Task Environment&lt;/b&gt;&lt;/span&gt;&lt;/font&gt;" style="rounded=1;whiteSpace=wrap;html=1;fillColor=#000033;strokeColor=none;fontColor=#FFFFFF;arcSize=18;container=0;" vertex="1" parent="1">
          <mxGeometry x="3425" y="3737" width="800" height="40" as="geometry" />
        </mxCell>
        <mxCell id="xk_BrVM3mgd0aOaVTL9x-255" value="&lt;font face=&quot;Comic Sans MS&quot;&gt;&lt;span style=&quot;font-size: 16px;&quot;&gt;&lt;b&gt;Chracteristics&lt;/b&gt;&lt;/span&gt;&lt;/font&gt;" style="rounded=1;whiteSpace=wrap;html=1;fillColor=#000033;strokeColor=none;fontColor=#FFFFFF;arcSize=12;container=0;" vertex="1" parent="1">
          <mxGeometry x="3425" y="3785.36" width="155" height="37.64" as="geometry" />
        </mxCell>
        <mxCell id="xk_BrVM3mgd0aOaVTL9x-256" value="&lt;font face=&quot;Comic Sans MS&quot;&gt;&lt;span style=&quot;font-size: 16px;&quot;&gt;&lt;b&gt;Definition&lt;/b&gt;&lt;/span&gt;&lt;/font&gt;" style="rounded=1;whiteSpace=wrap;html=1;fillColor=#000033;strokeColor=none;fontColor=#FFFFFF;arcSize=12;container=0;" vertex="1" parent="1">
          <mxGeometry x="3587" y="3785.36" width="376" height="37.64" as="geometry" />
        </mxCell>
        <mxCell id="xk_BrVM3mgd0aOaVTL9x-257" value="&lt;font face=&quot;Comic Sans MS&quot;&gt;&lt;span style=&quot;font-size: 16px;&quot;&gt;&lt;b&gt;Example&lt;/b&gt;&lt;/span&gt;&lt;/font&gt;" style="rounded=1;whiteSpace=wrap;html=1;fillColor=#000033;strokeColor=none;fontColor=#FFFFFF;arcSize=12;container=0;" vertex="1" parent="1">
          <mxGeometry x="3970" y="3785.36" width="253" height="37.64" as="geometry" />
        </mxCell>
        <mxCell id="xk_BrVM3mgd0aOaVTL9x-258" value="" style="rounded=1;whiteSpace=wrap;html=1;fillColor=#33FFFF;strokeColor=none;fontColor=#FFFFFF;arcSize=11;container=0;" vertex="1" parent="1">
          <mxGeometry x="3426" y="3832.72" width="155" height="121.28" as="geometry" />
        </mxCell>
        <mxCell id="xk_BrVM3mgd0aOaVTL9x-259" value="" style="rounded=1;whiteSpace=wrap;html=1;fillColor=#33FFFF;strokeColor=none;fontColor=#FFFFFF;arcSize=10;container=0;" vertex="1" parent="1">
          <mxGeometry x="3588" y="3832.72" width="376" height="122.28" as="geometry" />
        </mxCell>
        <mxCell id="xk_BrVM3mgd0aOaVTL9x-260" value="" style="rounded=1;whiteSpace=wrap;html=1;fillColor=#33FFFF;strokeColor=none;fontColor=#FFFFFF;arcSize=9;container=0;" vertex="1" parent="1">
          <mxGeometry x="3971" y="3832.72" width="253" height="121.28" as="geometry" />
        </mxCell>
        <mxCell id="xk_BrVM3mgd0aOaVTL9x-262" value="&lt;font face=&quot;Comic Sans MS&quot;&gt;&lt;span&gt;&lt;b&gt;Agents sees the Entire State&lt;/b&gt;&lt;/span&gt;&lt;/font&gt;" style="rounded=1;whiteSpace=wrap;html=1;fillColor=#C9EFFF;strokeColor=none;fontColor=#000000;arcSize=12;container=0;fontSize=15;" vertex="1" parent="1">
          <mxGeometry x="3595" y="3840" width="361" height="50" as="geometry" />
        </mxCell>
        <mxCell id="xk_BrVM3mgd0aOaVTL9x-263" value="&lt;font face=&quot;Comic Sans MS&quot;&gt;&lt;span&gt;&lt;b&gt;Fully Observable&lt;/b&gt;&lt;/span&gt;&lt;/font&gt;" style="rounded=1;whiteSpace=wrap;html=1;fillColor=#C9EFFF;strokeColor=none;fontColor=#000000;arcSize=12;container=0;fontSize=15;" vertex="1" parent="1">
          <mxGeometry x="3433.5" y="3840" width="140" height="48" as="geometry" />
        </mxCell>
        <mxCell id="xk_BrVM3mgd0aOaVTL9x-265" value="&lt;font face=&quot;Comic Sans MS&quot;&gt;&lt;b&gt;Chess Game&lt;/b&gt;&lt;/font&gt;" style="rounded=1;whiteSpace=wrap;html=1;fillColor=#C9EFFF;strokeColor=none;fontColor=#000000;arcSize=12;container=0;fontSize=15;" vertex="1" parent="1">
          <mxGeometry x="3980" y="3840" width="236" height="50" as="geometry" />
        </mxCell>
        <mxCell id="xk_BrVM3mgd0aOaVTL9x-266" value="&lt;font face=&quot;Comic Sans MS&quot;&gt;&lt;span&gt;&lt;b&gt;Agent sees Part of the State&lt;/b&gt;&lt;/span&gt;&lt;/font&gt;" style="rounded=1;whiteSpace=wrap;html=1;fillColor=#C9EFFF;strokeColor=none;fontColor=#000000;arcSize=12;container=0;fontSize=15;" vertex="1" parent="1">
          <mxGeometry x="3594.5" y="3896.5" width="361" height="50" as="geometry" />
        </mxCell>
        <mxCell id="xk_BrVM3mgd0aOaVTL9x-267" value="&lt;font face=&quot;Comic Sans MS&quot;&gt;&lt;span&gt;&lt;b&gt;Partially Observable&lt;/b&gt;&lt;/span&gt;&lt;/font&gt;" style="rounded=1;whiteSpace=wrap;html=1;fillColor=#C9EFFF;strokeColor=none;fontColor=#000000;arcSize=12;container=0;fontSize=15;" vertex="1" parent="1">
          <mxGeometry x="3433" y="3896.5" width="140" height="48" as="geometry" />
        </mxCell>
        <mxCell id="xk_BrVM3mgd0aOaVTL9x-268" value="&lt;font face=&quot;Comic Sans MS&quot;&gt;&lt;b&gt;Poker Game&lt;/b&gt;&lt;/font&gt;" style="rounded=1;whiteSpace=wrap;html=1;fillColor=#C9EFFF;strokeColor=none;fontColor=#000000;arcSize=12;container=0;fontSize=15;" vertex="1" parent="1">
          <mxGeometry x="3979.5" y="3896.5" width="236" height="50" as="geometry" />
        </mxCell>
        <mxCell id="xk_BrVM3mgd0aOaVTL9x-269" value="" style="rounded=1;whiteSpace=wrap;html=1;fillColor=#33FFFF;strokeColor=none;fontColor=#FFFFFF;arcSize=11;container=0;" vertex="1" parent="1">
          <mxGeometry x="3426" y="3965.22" width="155" height="121.28" as="geometry" />
        </mxCell>
        <mxCell id="xk_BrVM3mgd0aOaVTL9x-270" value="" style="rounded=1;whiteSpace=wrap;html=1;fillColor=#33FFFF;strokeColor=none;fontColor=#FFFFFF;arcSize=10;container=0;" vertex="1" parent="1">
          <mxGeometry x="3588" y="3965.22" width="376" height="122.28" as="geometry" />
        </mxCell>
        <mxCell id="xk_BrVM3mgd0aOaVTL9x-271" value="" style="rounded=1;whiteSpace=wrap;html=1;fillColor=#33FFFF;strokeColor=none;fontColor=#FFFFFF;arcSize=9;container=0;" vertex="1" parent="1">
          <mxGeometry x="3971" y="3965.22" width="253" height="121.28" as="geometry" />
        </mxCell>
        <mxCell id="xk_BrVM3mgd0aOaVTL9x-272" value="&lt;font face=&quot;Comic Sans MS&quot;&gt;&lt;span&gt;&lt;b&gt;Agent understands all environment rules&lt;/b&gt;&lt;/span&gt;&lt;/font&gt;" style="rounded=1;whiteSpace=wrap;html=1;fillColor=#C9EFFF;strokeColor=none;fontColor=#000000;arcSize=12;container=0;fontSize=15;" vertex="1" parent="1">
          <mxGeometry x="3595" y="3972.5" width="361" height="50" as="geometry" />
        </mxCell>
        <mxCell id="xk_BrVM3mgd0aOaVTL9x-273" value="&lt;font face=&quot;Comic Sans MS&quot;&gt;&lt;span&gt;&lt;b&gt;Known&lt;/b&gt;&lt;/span&gt;&lt;/font&gt;" style="rounded=1;whiteSpace=wrap;html=1;fillColor=#C9EFFF;strokeColor=none;fontColor=#000000;arcSize=12;container=0;fontSize=15;" vertex="1" parent="1">
          <mxGeometry x="3433.5" y="3972.5" width="140" height="48" as="geometry" />
        </mxCell>
        <mxCell id="xk_BrVM3mgd0aOaVTL9x-274" value="&lt;font face=&quot;Comic Sans MS&quot;&gt;&lt;b&gt;Sudoku Puzzle&lt;/b&gt;&lt;/font&gt;" style="rounded=1;whiteSpace=wrap;html=1;fillColor=#C9EFFF;strokeColor=none;fontColor=#000000;arcSize=12;container=0;fontSize=15;" vertex="1" parent="1">
          <mxGeometry x="3980" y="3972.5" width="236" height="50" as="geometry" />
        </mxCell>
        <mxCell id="xk_BrVM3mgd0aOaVTL9x-275" value="&lt;font face=&quot;Comic Sans MS&quot;&gt;&lt;b&gt;Agent Lacks the Understanding of the Rules&lt;/b&gt;&lt;/font&gt;" style="rounded=1;whiteSpace=wrap;html=1;fillColor=#C9EFFF;strokeColor=none;fontColor=#000000;arcSize=12;container=0;fontSize=15;" vertex="1" parent="1">
          <mxGeometry x="3594.5" y="4029" width="361" height="50" as="geometry" />
        </mxCell>
        <mxCell id="xk_BrVM3mgd0aOaVTL9x-276" value="&lt;font face=&quot;Comic Sans MS&quot;&gt;&lt;span&gt;&lt;b&gt;Unknown&lt;/b&gt;&lt;/span&gt;&lt;/font&gt;" style="rounded=1;whiteSpace=wrap;html=1;fillColor=#C9EFFF;strokeColor=none;fontColor=#000000;arcSize=12;container=0;fontSize=15;" vertex="1" parent="1">
          <mxGeometry x="3433" y="4029" width="140" height="48" as="geometry" />
        </mxCell>
        <mxCell id="xk_BrVM3mgd0aOaVTL9x-277" value="&lt;font face=&quot;Comic Sans MS&quot;&gt;&lt;b&gt;Exploring A New Planet&lt;/b&gt;&lt;/font&gt;" style="rounded=1;whiteSpace=wrap;html=1;fillColor=#C9EFFF;strokeColor=none;fontColor=#000000;arcSize=12;container=0;fontSize=15;" vertex="1" parent="1">
          <mxGeometry x="3979.5" y="4029" width="236" height="50" as="geometry" />
        </mxCell>
        <mxCell id="xk_BrVM3mgd0aOaVTL9x-278" value="" style="rounded=1;whiteSpace=wrap;html=1;fillColor=#33FFFF;strokeColor=none;fontColor=#FFFFFF;arcSize=11;container=0;" vertex="1" parent="1">
          <mxGeometry x="3425.5" y="4098.719999999999" width="155" height="121.28" as="geometry" />
        </mxCell>
        <mxCell id="xk_BrVM3mgd0aOaVTL9x-279" value="" style="rounded=1;whiteSpace=wrap;html=1;fillColor=#33FFFF;strokeColor=none;fontColor=#FFFFFF;arcSize=10;container=0;" vertex="1" parent="1">
          <mxGeometry x="3587.5" y="4098.719999999999" width="376" height="122.28" as="geometry" />
        </mxCell>
        <mxCell id="xk_BrVM3mgd0aOaVTL9x-280" value="" style="rounded=1;whiteSpace=wrap;html=1;fillColor=#33FFFF;strokeColor=none;fontColor=#FFFFFF;arcSize=9;container=0;" vertex="1" parent="1">
          <mxGeometry x="3970.5" y="4098.719999999999" width="253" height="121.28" as="geometry" />
        </mxCell>
        <mxCell id="xk_BrVM3mgd0aOaVTL9x-281" value="&lt;font face=&quot;Comic Sans MS&quot;&gt;&lt;span&gt;&lt;b&gt;Agent Operates Alone&lt;/b&gt;&lt;/span&gt;&lt;/font&gt;" style="rounded=1;whiteSpace=wrap;html=1;fillColor=#C9EFFF;strokeColor=none;fontColor=#000000;arcSize=12;container=0;fontSize=15;" vertex="1" parent="1">
          <mxGeometry x="3594.5" y="4106" width="361" height="50" as="geometry" />
        </mxCell>
        <mxCell id="xk_BrVM3mgd0aOaVTL9x-282" value="&lt;font face=&quot;Comic Sans MS&quot;&gt;&lt;b&gt;Single&lt;/b&gt;&lt;/font&gt;" style="rounded=1;whiteSpace=wrap;html=1;fillColor=#C9EFFF;strokeColor=none;fontColor=#000000;arcSize=12;container=0;fontSize=15;" vertex="1" parent="1">
          <mxGeometry x="3433" y="4106" width="140" height="48" as="geometry" />
        </mxCell>
        <mxCell id="xk_BrVM3mgd0aOaVTL9x-283" value="&lt;font face=&quot;Comic Sans MS&quot;&gt;&lt;b&gt;Sollataire Game&lt;/b&gt;&lt;/font&gt;" style="rounded=1;whiteSpace=wrap;html=1;fillColor=#C9EFFF;strokeColor=none;fontColor=#000000;arcSize=12;container=0;fontSize=15;" vertex="1" parent="1">
          <mxGeometry x="3979.5" y="4106" width="236" height="50" as="geometry" />
        </mxCell>
        <mxCell id="xk_BrVM3mgd0aOaVTL9x-284" value="&lt;font face=&quot;Comic Sans MS&quot;&gt;&lt;b&gt;Agent Operates with Others&lt;/b&gt;&lt;/font&gt;" style="rounded=1;whiteSpace=wrap;html=1;fillColor=#C9EFFF;strokeColor=none;fontColor=#000000;arcSize=12;container=0;fontSize=15;" vertex="1" parent="1">
          <mxGeometry x="3594" y="4162.5" width="361" height="50" as="geometry" />
        </mxCell>
        <mxCell id="xk_BrVM3mgd0aOaVTL9x-285" value="&lt;font face=&quot;Comic Sans MS&quot;&gt;&lt;span&gt;&lt;b&gt;Multi-Agent&lt;/b&gt;&lt;/span&gt;&lt;/font&gt;" style="rounded=1;whiteSpace=wrap;html=1;fillColor=#C9EFFF;strokeColor=none;fontColor=#000000;arcSize=12;container=0;fontSize=15;" vertex="1" parent="1">
          <mxGeometry x="3432.5" y="4162.5" width="140" height="48" as="geometry" />
        </mxCell>
        <mxCell id="xk_BrVM3mgd0aOaVTL9x-286" value="&lt;font face=&quot;Comic Sans MS&quot;&gt;&lt;b&gt;Football Match&lt;/b&gt;&lt;/font&gt;" style="rounded=1;whiteSpace=wrap;html=1;fillColor=#C9EFFF;strokeColor=none;fontColor=#000000;arcSize=12;container=0;fontSize=15;" vertex="1" parent="1">
          <mxGeometry x="3979" y="4162.5" width="236" height="50" as="geometry" />
        </mxCell>
        <mxCell id="xk_BrVM3mgd0aOaVTL9x-287" value="" style="rounded=1;whiteSpace=wrap;html=1;fillColor=#33FFFF;strokeColor=none;fontColor=#FFFFFF;arcSize=11;container=0;" vertex="1" parent="1">
          <mxGeometry x="3427" y="4233.719999999999" width="155" height="121.28" as="geometry" />
        </mxCell>
        <mxCell id="xk_BrVM3mgd0aOaVTL9x-288" value="" style="rounded=1;whiteSpace=wrap;html=1;fillColor=#33FFFF;strokeColor=none;fontColor=#FFFFFF;arcSize=10;container=0;" vertex="1" parent="1">
          <mxGeometry x="3589" y="4233.719999999999" width="376" height="122.28" as="geometry" />
        </mxCell>
        <mxCell id="xk_BrVM3mgd0aOaVTL9x-289" value="" style="rounded=1;whiteSpace=wrap;html=1;fillColor=#33FFFF;strokeColor=none;fontColor=#FFFFFF;arcSize=9;container=0;" vertex="1" parent="1">
          <mxGeometry x="3972" y="4233.719999999999" width="253" height="121.28" as="geometry" />
        </mxCell>
        <mxCell id="xk_BrVM3mgd0aOaVTL9x-290" value="&lt;font face=&quot;Comic Sans MS&quot;&gt;&lt;b&gt;Actions have Predictable Outcomes, the next state is determined byt the current state&lt;/b&gt;&lt;/font&gt;" style="rounded=1;whiteSpace=wrap;html=1;fillColor=#C9EFFF;strokeColor=none;fontColor=#000000;arcSize=12;container=0;fontSize=15;" vertex="1" parent="1">
          <mxGeometry x="3596" y="4241" width="361" height="50" as="geometry" />
        </mxCell>
        <mxCell id="xk_BrVM3mgd0aOaVTL9x-291" value="&lt;font face=&quot;Comic Sans MS&quot;&gt;&lt;span&gt;&lt;b&gt;Deterministic&lt;/b&gt;&lt;/span&gt;&lt;/font&gt;" style="rounded=1;whiteSpace=wrap;html=1;fillColor=#C9EFFF;strokeColor=none;fontColor=#000000;arcSize=12;container=0;fontSize=15;" vertex="1" parent="1">
          <mxGeometry x="3434.5" y="4241" width="140" height="48" as="geometry" />
        </mxCell>
        <mxCell id="xk_BrVM3mgd0aOaVTL9x-292" value="&lt;font face=&quot;Comic Sans MS&quot;&gt;&lt;b&gt;Clock Mechanism&lt;/b&gt;&lt;/font&gt;" style="rounded=1;whiteSpace=wrap;html=1;fillColor=#C9EFFF;strokeColor=none;fontColor=#000000;arcSize=12;container=0;fontSize=15;" vertex="1" parent="1">
          <mxGeometry x="3981" y="4241" width="236" height="50" as="geometry" />
        </mxCell>
        <mxCell id="xk_BrVM3mgd0aOaVTL9x-293" value="&lt;font face=&quot;Comic Sans MS&quot;&gt;&lt;b&gt;Outcomes are Uncertain&lt;/b&gt;&lt;/font&gt;" style="rounded=1;whiteSpace=wrap;html=1;fillColor=#C9EFFF;strokeColor=none;fontColor=#000000;arcSize=12;container=0;fontSize=15;" vertex="1" parent="1">
          <mxGeometry x="3595.5" y="4297.5" width="361" height="50" as="geometry" />
        </mxCell>
        <mxCell id="xk_BrVM3mgd0aOaVTL9x-294" value="&lt;font face=&quot;Comic Sans MS&quot;&gt;&lt;span&gt;&lt;b&gt;Stochastic&lt;/b&gt;&lt;/span&gt;&lt;/font&gt;" style="rounded=1;whiteSpace=wrap;html=1;fillColor=#C9EFFF;strokeColor=none;fontColor=#000000;arcSize=12;container=0;fontSize=15;" vertex="1" parent="1">
          <mxGeometry x="3434" y="4297.5" width="140" height="48" as="geometry" />
        </mxCell>
        <mxCell id="xk_BrVM3mgd0aOaVTL9x-295" value="&lt;font face=&quot;Comic Sans MS&quot;&gt;&lt;b&gt;Weather Forecase&lt;/b&gt;&lt;/font&gt;" style="rounded=1;whiteSpace=wrap;html=1;fillColor=#C9EFFF;strokeColor=none;fontColor=#000000;arcSize=12;container=0;fontSize=15;" vertex="1" parent="1">
          <mxGeometry x="3980.5" y="4297.5" width="236" height="50" as="geometry" />
        </mxCell>
        <mxCell id="xk_BrVM3mgd0aOaVTL9x-296" value="" style="rounded=1;whiteSpace=wrap;html=1;fillColor=#33FFFF;strokeColor=none;fontColor=#FFFFFF;arcSize=11;container=0;" vertex="1" parent="1">
          <mxGeometry x="3426.5" y="4367.219999999999" width="155" height="121.28" as="geometry" />
        </mxCell>
        <mxCell id="xk_BrVM3mgd0aOaVTL9x-297" value="" style="rounded=1;whiteSpace=wrap;html=1;fillColor=#33FFFF;strokeColor=none;fontColor=#FFFFFF;arcSize=10;container=0;" vertex="1" parent="1">
          <mxGeometry x="3588.5" y="4367.219999999999" width="376" height="122.28" as="geometry" />
        </mxCell>
        <mxCell id="xk_BrVM3mgd0aOaVTL9x-298" value="" style="rounded=1;whiteSpace=wrap;html=1;fillColor=#33FFFF;strokeColor=none;fontColor=#FFFFFF;arcSize=9;container=0;" vertex="1" parent="1">
          <mxGeometry x="3971.5" y="4367.219999999999" width="253" height="121.28" as="geometry" />
        </mxCell>
        <mxCell id="xk_BrVM3mgd0aOaVTL9x-299" value="&lt;font face=&quot;Comic Sans MS&quot;&gt;&lt;span&gt;&lt;b&gt;Experiences are Isolated&lt;/b&gt;&lt;/span&gt;&lt;/font&gt;" style="rounded=1;whiteSpace=wrap;html=1;fillColor=#C9EFFF;strokeColor=none;fontColor=#000000;arcSize=12;container=0;fontSize=15;" vertex="1" parent="1">
          <mxGeometry x="3595.5" y="4374.5" width="361" height="50" as="geometry" />
        </mxCell>
        <mxCell id="xk_BrVM3mgd0aOaVTL9x-300" value="&lt;font face=&quot;Comic Sans MS&quot;&gt;&lt;b&gt;Episodic&lt;/b&gt;&lt;/font&gt;" style="rounded=1;whiteSpace=wrap;html=1;fillColor=#C9EFFF;strokeColor=none;fontColor=#000000;arcSize=12;container=0;fontSize=15;" vertex="1" parent="1">
          <mxGeometry x="3434" y="4374.5" width="140" height="48" as="geometry" />
        </mxCell>
        <mxCell id="xk_BrVM3mgd0aOaVTL9x-301" value="&lt;font face=&quot;Comic Sans MS&quot;&gt;&lt;b&gt;Taking a Quiz&lt;/b&gt;&lt;/font&gt;" style="rounded=1;whiteSpace=wrap;html=1;fillColor=#C9EFFF;strokeColor=none;fontColor=#000000;arcSize=12;container=0;fontSize=15;" vertex="1" parent="1">
          <mxGeometry x="3980.5" y="4374.5" width="236" height="50" as="geometry" />
        </mxCell>
        <mxCell id="xk_BrVM3mgd0aOaVTL9x-302" value="&lt;font face=&quot;Comic Sans MS&quot;&gt;&lt;b&gt;Experiences are Connected&lt;/b&gt;&lt;/font&gt;" style="rounded=1;whiteSpace=wrap;html=1;fillColor=#C9EFFF;strokeColor=none;fontColor=#000000;arcSize=12;container=0;fontSize=15;" vertex="1" parent="1">
          <mxGeometry x="3595" y="4431" width="361" height="50" as="geometry" />
        </mxCell>
        <mxCell id="xk_BrVM3mgd0aOaVTL9x-303" value="&lt;font face=&quot;Comic Sans MS&quot;&gt;&lt;span&gt;&lt;b&gt;Sequential&lt;/b&gt;&lt;/span&gt;&lt;/font&gt;" style="rounded=1;whiteSpace=wrap;html=1;fillColor=#C9EFFF;strokeColor=none;fontColor=#000000;arcSize=12;container=0;fontSize=15;" vertex="1" parent="1">
          <mxGeometry x="3433.5" y="4431" width="140" height="48" as="geometry" />
        </mxCell>
        <mxCell id="xk_BrVM3mgd0aOaVTL9x-304" value="&lt;font face=&quot;Comic Sans MS&quot;&gt;&lt;b&gt;Writing a Book&lt;/b&gt;&lt;/font&gt;" style="rounded=1;whiteSpace=wrap;html=1;fillColor=#C9EFFF;strokeColor=none;fontColor=#000000;arcSize=12;container=0;fontSize=15;" vertex="1" parent="1">
          <mxGeometry x="3980" y="4431" width="236" height="50" as="geometry" />
        </mxCell>
        <mxCell id="xk_BrVM3mgd0aOaVTL9x-305" value="" style="rounded=1;whiteSpace=wrap;html=1;fillColor=#33FFFF;strokeColor=none;fontColor=#FFFFFF;arcSize=11;container=0;" vertex="1" parent="1">
          <mxGeometry x="3426.5" y="4500.289999999999" width="155" height="121.28" as="geometry" />
        </mxCell>
        <mxCell id="xk_BrVM3mgd0aOaVTL9x-306" value="" style="rounded=1;whiteSpace=wrap;html=1;fillColor=#33FFFF;strokeColor=none;fontColor=#FFFFFF;arcSize=10;container=0;" vertex="1" parent="1">
          <mxGeometry x="3588.5" y="4500.289999999999" width="376" height="122.28" as="geometry" />
        </mxCell>
        <mxCell id="xk_BrVM3mgd0aOaVTL9x-307" value="" style="rounded=1;whiteSpace=wrap;html=1;fillColor=#33FFFF;strokeColor=none;fontColor=#FFFFFF;arcSize=9;container=0;" vertex="1" parent="1">
          <mxGeometry x="3971.5" y="4500.289999999999" width="253" height="121.28" as="geometry" />
        </mxCell>
        <mxCell id="xk_BrVM3mgd0aOaVTL9x-308" value="&lt;font face=&quot;Comic Sans MS&quot;&gt;&lt;b&gt;Experiences are Isolated&lt;/b&gt;&lt;/font&gt;" style="rounded=1;whiteSpace=wrap;html=1;fillColor=#C9EFFF;strokeColor=none;fontColor=#000000;arcSize=12;container=0;fontSize=15;" vertex="1" parent="1">
          <mxGeometry x="3595.5" y="4507.57" width="361" height="50" as="geometry" />
        </mxCell>
        <mxCell id="xk_BrVM3mgd0aOaVTL9x-309" value="&lt;font face=&quot;Comic Sans MS&quot;&gt;&lt;span&gt;&lt;b&gt;Static&lt;/b&gt;&lt;/span&gt;&lt;/font&gt;" style="rounded=1;whiteSpace=wrap;html=1;fillColor=#C9EFFF;strokeColor=none;fontColor=#000000;arcSize=12;container=0;fontSize=15;" vertex="1" parent="1">
          <mxGeometry x="3434" y="4507.57" width="140" height="48" as="geometry" />
        </mxCell>
        <mxCell id="xk_BrVM3mgd0aOaVTL9x-310" value="&lt;font face=&quot;Comic Sans MS&quot;&gt;&lt;b&gt;Jigsaw Puzzle&lt;/b&gt;&lt;/font&gt;" style="rounded=1;whiteSpace=wrap;html=1;fillColor=#C9EFFF;strokeColor=none;fontColor=#000000;arcSize=12;container=0;fontSize=15;" vertex="1" parent="1">
          <mxGeometry x="3980.5" y="4507.57" width="236" height="50" as="geometry" />
        </mxCell>
        <mxCell id="xk_BrVM3mgd0aOaVTL9x-311" value="&lt;font face=&quot;Comic Sans MS&quot;&gt;&lt;b&gt;Experiences are Connected&lt;/b&gt;&lt;/font&gt;" style="rounded=1;whiteSpace=wrap;html=1;fillColor=#C9EFFF;strokeColor=none;fontColor=#000000;arcSize=12;container=0;fontSize=15;" vertex="1" parent="1">
          <mxGeometry x="3595" y="4564.07" width="361" height="50" as="geometry" />
        </mxCell>
        <mxCell id="xk_BrVM3mgd0aOaVTL9x-312" value="&lt;font face=&quot;Comic Sans MS&quot;&gt;&lt;span&gt;&lt;b&gt;Dynamic&lt;/b&gt;&lt;/span&gt;&lt;/font&gt;" style="rounded=1;whiteSpace=wrap;html=1;fillColor=#C9EFFF;strokeColor=none;fontColor=#000000;arcSize=12;container=0;fontSize=15;" vertex="1" parent="1">
          <mxGeometry x="3433.5" y="4564.07" width="140" height="48" as="geometry" />
        </mxCell>
        <mxCell id="xk_BrVM3mgd0aOaVTL9x-313" value="&lt;font face=&quot;Comic Sans MS&quot;&gt;&lt;b&gt;The Stock Market&lt;/b&gt;&lt;/font&gt;" style="rounded=1;whiteSpace=wrap;html=1;fillColor=#C9EFFF;strokeColor=none;fontColor=#000000;arcSize=12;container=0;fontSize=15;" vertex="1" parent="1">
          <mxGeometry x="3980" y="4564.07" width="236" height="50" as="geometry" />
        </mxCell>
        <mxCell id="xk_BrVM3mgd0aOaVTL9x-314" value="" style="rounded=1;whiteSpace=wrap;html=1;fillColor=#33FFFF;strokeColor=none;fontColor=#FFFFFF;arcSize=11;container=0;" vertex="1" parent="1">
          <mxGeometry x="3426" y="4633.789999999999" width="155" height="121.28" as="geometry" />
        </mxCell>
        <mxCell id="xk_BrVM3mgd0aOaVTL9x-315" value="" style="rounded=1;whiteSpace=wrap;html=1;fillColor=#33FFFF;strokeColor=none;fontColor=#FFFFFF;arcSize=10;container=0;" vertex="1" parent="1">
          <mxGeometry x="3588" y="4633.789999999999" width="376" height="122.28" as="geometry" />
        </mxCell>
        <mxCell id="xk_BrVM3mgd0aOaVTL9x-316" value="" style="rounded=1;whiteSpace=wrap;html=1;fillColor=#33FFFF;strokeColor=none;fontColor=#FFFFFF;arcSize=9;container=0;" vertex="1" parent="1">
          <mxGeometry x="3971" y="4633.789999999999" width="253" height="121.28" as="geometry" />
        </mxCell>
        <mxCell id="xk_BrVM3mgd0aOaVTL9x-317" value="&lt;font face=&quot;Comic Sans MS&quot;&gt;&lt;b&gt;Finite States&lt;/b&gt;&lt;/font&gt;" style="rounded=1;whiteSpace=wrap;html=1;fillColor=#C9EFFF;strokeColor=none;fontColor=#000000;arcSize=12;container=0;fontSize=15;" vertex="1" parent="1">
          <mxGeometry x="3595" y="4641.07" width="361" height="50" as="geometry" />
        </mxCell>
        <mxCell id="xk_BrVM3mgd0aOaVTL9x-318" value="&lt;font face=&quot;Comic Sans MS&quot;&gt;&lt;b&gt;Discrete&lt;/b&gt;&lt;/font&gt;" style="rounded=1;whiteSpace=wrap;html=1;fillColor=#C9EFFF;strokeColor=none;fontColor=#000000;arcSize=12;container=0;fontSize=15;" vertex="1" parent="1">
          <mxGeometry x="3433.5" y="4641.07" width="140" height="48" as="geometry" />
        </mxCell>
        <mxCell id="xk_BrVM3mgd0aOaVTL9x-319" value="&lt;font face=&quot;Comic Sans MS&quot;&gt;&lt;b&gt;Digital Watch&lt;/b&gt;&lt;/font&gt;" style="rounded=1;whiteSpace=wrap;html=1;fillColor=#C9EFFF;strokeColor=none;fontColor=#000000;arcSize=12;container=0;fontSize=15;" vertex="1" parent="1">
          <mxGeometry x="3980" y="4641.07" width="236" height="50" as="geometry" />
        </mxCell>
        <mxCell id="xk_BrVM3mgd0aOaVTL9x-320" value="&lt;font face=&quot;Comic Sans MS&quot;&gt;&lt;b&gt;Spectrum of States&lt;/b&gt;&lt;/font&gt;" style="rounded=1;whiteSpace=wrap;html=1;fillColor=#C9EFFF;strokeColor=none;fontColor=#000000;arcSize=12;container=0;fontSize=15;" vertex="1" parent="1">
          <mxGeometry x="3594.5" y="4697.57" width="361" height="50" as="geometry" />
        </mxCell>
        <mxCell id="xk_BrVM3mgd0aOaVTL9x-321" value="&lt;font face=&quot;Comic Sans MS&quot;&gt;&lt;span&gt;&lt;b&gt;Continuous&lt;/b&gt;&lt;/span&gt;&lt;/font&gt;" style="rounded=1;whiteSpace=wrap;html=1;fillColor=#C9EFFF;strokeColor=none;fontColor=#000000;arcSize=12;container=0;fontSize=15;" vertex="1" parent="1">
          <mxGeometry x="3433" y="4697.57" width="140" height="48" as="geometry" />
        </mxCell>
        <mxCell id="xk_BrVM3mgd0aOaVTL9x-322" value="&lt;font face=&quot;Comic Sans MS&quot;&gt;&lt;b&gt;Analog Watch&lt;/b&gt;&lt;/font&gt;" style="rounded=1;whiteSpace=wrap;html=1;fillColor=#C9EFFF;strokeColor=none;fontColor=#000000;arcSize=12;container=0;fontSize=15;" vertex="1" parent="1">
          <mxGeometry x="3979.5" y="4697.57" width="236" height="50" as="geometry" />
        </mxCell>
        <mxCell id="xk_BrVM3mgd0aOaVTL9x-323" value="&lt;font face=&quot;Comic Sans MS&quot; style=&quot;font-size: 16px;&quot;&gt;&lt;b style=&quot;&quot;&gt;Example of ChatGPT Search Process&lt;/b&gt;&lt;/font&gt;" style="rounded=1;whiteSpace=wrap;html=1;fillColor=#FFBB00;strokeColor=none;fontColor=#000000;arcSize=18;container=0;" vertex="1" parent="1">
          <mxGeometry x="3425" y="4794.5" width="795" height="30" as="geometry" />
        </mxCell>
        <mxCell id="xk_BrVM3mgd0aOaVTL9x-324" value="&lt;b style=&quot;font-family: &amp;quot;Comic Sans MS&amp;quot;; font-size: 18px;&quot;&gt;Start&lt;/b&gt;" style="ellipse;whiteSpace=wrap;html=1;aspect=fixed;fillStyle=auto;gradientColor=none;fillColor=#FFFF33;shadow=0;strokeWidth=3;container=0;fontColor=#000000;strokeColor=#000000;" vertex="1" parent="1">
          <mxGeometry x="3446" y="4847.5" width="80" height="80" as="geometry" />
        </mxCell>
        <mxCell id="xk_BrVM3mgd0aOaVTL9x-325" value="&lt;b style=&quot;font-family: &amp;quot;Comic Sans MS&amp;quot;; font-size: 18px;&quot;&gt;End&lt;/b&gt;" style="ellipse;whiteSpace=wrap;html=1;aspect=fixed;fillStyle=auto;gradientColor=none;fillColor=#FFFF33;shadow=0;strokeWidth=3;container=0;fontColor=#000000;strokeColor=#000000;" vertex="1" parent="1">
          <mxGeometry x="4126" y="5007.5" width="80" height="80" as="geometry" />
        </mxCell>
        <mxCell id="xk_BrVM3mgd0aOaVTL9x-326" value="&lt;b style=&quot;font-family: &amp;quot;Comic Sans MS&amp;quot;; font-size: 18px;&quot;&gt;Quite&lt;/b&gt;" style="ellipse;whiteSpace=wrap;html=1;aspect=fixed;fillStyle=auto;gradientColor=none;fillColor=#B3B3B3;shadow=0;strokeWidth=3;container=0;fontColor=#000000;strokeColor=#000000;" vertex="1" parent="1">
          <mxGeometry x="3551" y="4977.5" width="80" height="80" as="geometry" />
        </mxCell>
        <mxCell id="xk_BrVM3mgd0aOaVTL9x-327" value="&lt;font face=&quot;Comic Sans MS&quot;&gt;&lt;span style=&quot;font-size: 18px;&quot;&gt;&lt;b&gt;Very&lt;/b&gt;&lt;/span&gt;&lt;/font&gt;&lt;span style=&quot;color: rgba(0, 0, 0, 0); font-family: monospace; font-size: 0px; text-align: start; text-wrap: nowrap;&quot;&gt;%3CmxGraphModel%3E%3Croot%3E%3CmxCell%20id%3D%220%22%2F%3E%3CmxCell%20id%3D%221%22%20parent%3D%220%22%2F%3E%3CmxCell%20id%3D%222%22%20value%3D%22%26lt%3Bfont%20face%3D%26quot%3BComic%20Sans%20MS%26quot%3B%26gt%3B%26lt%3Bspan%20style%3D%26quot%3Bfont-size%3A%2018px%3B%26quot%3B%26gt%3B%26lt%3Bb%26gt%3BBye%26lt%3B%2Fb%26gt%3B%26lt%3B%2Fspan%26gt%3B%26lt%3B%2Ffont%26gt%3B%22%20style%3D%22ellipse%3BwhiteSpace%3Dwrap%3Bhtml%3D1%3Baspect%3Dfixed%3BfillStyle%3Dauto%3BgradientColor%3Dnone%3BfillColor%3D%23FFFF33%3Bshadow%3D0%3BstrokeWidth%3D2%3Bcontainer%3D0%3BfontColor%3D%23000000%3BstrokeColor%3D%23000000%3B%22%20vertex%3D%221%22%20parent%3D%221%22%3E%3CmxGeometry%20x%3D%223620%22%20y%3D%225100%22%20width%3D%2280%22%20height%3D%2280%22%20as%3D%22geometry%22%2F%3E%3C%2FmxCell%3E%3C%2Froot%3E%3C%2FmxGraphModel%3E&lt;/span&gt;" style="ellipse;whiteSpace=wrap;html=1;aspect=fixed;fillStyle=auto;gradientColor=none;fillColor=#80FF00;shadow=0;strokeWidth=3;container=0;fontColor=#000000;strokeColor=#000000;" vertex="1" parent="1">
          <mxGeometry x="3589" y="4857.5" width="80" height="80" as="geometry" />
        </mxCell>
        <mxCell id="xk_BrVM3mgd0aOaVTL9x-330" value="&lt;font face=&quot;Comic Sans MS&quot;&gt;&lt;span style=&quot;font-size: 18px;&quot;&gt;&lt;b&gt;Impressive&lt;/b&gt;&lt;/span&gt;&lt;/font&gt;" style="ellipse;whiteSpace=wrap;html=1;fillColor=#80FF00;strokeWidth=3;" vertex="1" parent="1">
          <mxGeometry x="3721" y="4917.5" width="120" height="80" as="geometry" />
        </mxCell>
        <mxCell id="xk_BrVM3mgd0aOaVTL9x-331" value="&lt;font face=&quot;Comic Sans MS&quot;&gt;&lt;span style=&quot;font-size: 18px;&quot;&gt;&lt;b&gt;Act&lt;/b&gt;&lt;/span&gt;&lt;/font&gt;" style="ellipse;whiteSpace=wrap;html=1;aspect=fixed;fillStyle=auto;gradientColor=none;fillColor=#B3B3B3;shadow=0;strokeWidth=3;container=0;fontColor=#000000;strokeColor=#000000;" vertex="1" parent="1">
          <mxGeometry x="3896" y="4857.5" width="80" height="80" as="geometry" />
        </mxCell>
        <mxCell id="xk_BrVM3mgd0aOaVTL9x-332" value="&lt;font face=&quot;Comic Sans MS&quot;&gt;&lt;span style=&quot;font-size: 18px;&quot;&gt;&lt;b&gt;Performance&lt;/b&gt;&lt;/span&gt;&lt;/font&gt;" style="ellipse;whiteSpace=wrap;html=1;fillColor=#80FF00;strokeWidth=3;" vertex="1" parent="1">
          <mxGeometry x="3846" y="5047.5" width="120" height="80" as="geometry" />
        </mxCell>
        <mxCell id="xk_BrVM3mgd0aOaVTL9x-334" value="&lt;b style=&quot;font-family: &amp;quot;Comic Sans MS&amp;quot;; font-size: 18px;&quot;&gt;Amazing&lt;/b&gt;" style="ellipse;whiteSpace=wrap;html=1;aspect=fixed;fillStyle=auto;gradientColor=none;fillColor=#B3B3B3;shadow=0;strokeWidth=3;container=0;fontColor=#000000;strokeColor=#000000;" vertex="1" parent="1">
          <mxGeometry x="3681" y="5077.5" width="80" height="80" as="geometry" />
        </mxCell>
        <mxCell id="xk_BrVM3mgd0aOaVTL9x-335" value="&lt;font face=&quot;Comic Sans MS&quot;&gt;&lt;span style=&quot;font-size: 18px;&quot;&gt;&lt;b&gt;.&lt;/b&gt;&lt;/span&gt;&lt;/font&gt;" style="ellipse;whiteSpace=wrap;html=1;aspect=fixed;fillStyle=auto;gradientColor=none;fillColor=#80FF00;shadow=0;strokeWidth=3;container=0;fontColor=#000000;strokeColor=#000000;" vertex="1" parent="1">
          <mxGeometry x="4002" y="4967.5" width="80" height="80" as="geometry" />
        </mxCell>
        <mxCell id="xk_BrVM3mgd0aOaVTL9x-337" value="" style="endArrow=classic;html=1;rounded=0;strokeWidth=4;strokeColor=#000000;exitX=1;exitY=0.5;exitDx=0;exitDy=0;endFill=1;" edge="1" parent="1" source="xk_BrVM3mgd0aOaVTL9x-324" target="xk_BrVM3mgd0aOaVTL9x-327">
          <mxGeometry width="50" height="50" relative="1" as="geometry">
            <mxPoint x="3441" y="5015.5" as="sourcePoint" />
            <mxPoint x="3441" y="5077.5" as="targetPoint" />
          </mxGeometry>
        </mxCell>
        <mxCell id="xk_BrVM3mgd0aOaVTL9x-339" value="&lt;font face=&quot;Comic Sans MS&quot;&gt;&lt;span style=&quot;font-size: 18px; text-wrap: wrap; background-color: rgb(251, 251, 251);&quot;&gt;&lt;b&gt;90&lt;/b&gt;&lt;/span&gt;&lt;/font&gt;" style="edgeLabel;html=1;align=center;verticalAlign=middle;resizable=0;points=[];" vertex="1" connectable="0" parent="xk_BrVM3mgd0aOaVTL9x-337">
          <mxGeometry x="-0.2673" y="-6" relative="1" as="geometry">
            <mxPoint x="5" y="-31" as="offset" />
          </mxGeometry>
        </mxCell>
        <mxCell id="xk_BrVM3mgd0aOaVTL9x-340" value="" style="endArrow=classic;html=1;rounded=0;strokeWidth=4;strokeColor=#000000;exitX=1;exitY=1;exitDx=0;exitDy=0;endFill=1;entryX=0;entryY=0;entryDx=0;entryDy=0;" edge="1" parent="1" source="xk_BrVM3mgd0aOaVTL9x-324" target="xk_BrVM3mgd0aOaVTL9x-326">
          <mxGeometry width="50" height="50" relative="1" as="geometry">
            <mxPoint x="3536" y="4897.5" as="sourcePoint" />
            <mxPoint x="3599" y="4903.5" as="targetPoint" />
          </mxGeometry>
        </mxCell>
        <mxCell id="xk_BrVM3mgd0aOaVTL9x-341" value="&lt;font face=&quot;Comic Sans MS&quot;&gt;&lt;span style=&quot;font-size: 18px; text-wrap: wrap; background-color: rgb(251, 251, 251);&quot;&gt;&lt;b&gt;30&lt;/b&gt;&lt;/span&gt;&lt;/font&gt;" style="edgeLabel;html=1;align=center;verticalAlign=middle;resizable=0;points=[];" vertex="1" connectable="0" parent="xk_BrVM3mgd0aOaVTL9x-340">
          <mxGeometry x="-0.2673" y="-6" relative="1" as="geometry">
            <mxPoint x="-11" y="22" as="offset" />
          </mxGeometry>
        </mxCell>
        <mxCell id="xk_BrVM3mgd0aOaVTL9x-342" value="" style="endArrow=classic;html=1;rounded=0;strokeWidth=4;strokeColor=#000000;exitX=1;exitY=1;exitDx=0;exitDy=0;endFill=1;entryX=0;entryY=0.5;entryDx=0;entryDy=0;" edge="1" parent="1" source="xk_BrVM3mgd0aOaVTL9x-327" target="xk_BrVM3mgd0aOaVTL9x-330">
          <mxGeometry width="50" height="50" relative="1" as="geometry">
            <mxPoint x="3719.5" y="4937.5" as="sourcePoint" />
            <mxPoint x="3782.5" y="4943.5" as="targetPoint" />
          </mxGeometry>
        </mxCell>
        <mxCell id="xk_BrVM3mgd0aOaVTL9x-343" value="&lt;font face=&quot;Comic Sans MS&quot;&gt;&lt;span style=&quot;font-size: 18px; text-wrap: wrap; background-color: rgb(251, 251, 251);&quot;&gt;&lt;b&gt;120&lt;/b&gt;&lt;/span&gt;&lt;/font&gt;" style="edgeLabel;html=1;align=center;verticalAlign=middle;resizable=0;points=[];" vertex="1" connectable="0" parent="xk_BrVM3mgd0aOaVTL9x-342">
          <mxGeometry x="-0.2673" y="-6" relative="1" as="geometry">
            <mxPoint x="13" y="-25" as="offset" />
          </mxGeometry>
        </mxCell>
        <mxCell id="xk_BrVM3mgd0aOaVTL9x-344" value="" style="endArrow=classic;html=1;rounded=0;strokeWidth=4;strokeColor=#000000;exitX=0.5;exitY=1;exitDx=0;exitDy=0;endFill=1;entryX=0.5;entryY=0;entryDx=0;entryDy=0;" edge="1" parent="1" source="xk_BrVM3mgd0aOaVTL9x-327" target="xk_BrVM3mgd0aOaVTL9x-334">
          <mxGeometry width="50" height="50" relative="1" as="geometry">
            <mxPoint x="3667" y="4935.5" as="sourcePoint" />
            <mxPoint x="3731" y="4967.5" as="targetPoint" />
          </mxGeometry>
        </mxCell>
        <mxCell id="xk_BrVM3mgd0aOaVTL9x-345" value="&lt;font face=&quot;Comic Sans MS&quot;&gt;&lt;span style=&quot;font-size: 18px; text-wrap: wrap; background-color: rgb(251, 251, 251);&quot;&gt;&lt;b&gt;80&lt;/b&gt;&lt;/span&gt;&lt;/font&gt;" style="edgeLabel;html=1;align=center;verticalAlign=middle;resizable=0;points=[];" vertex="1" connectable="0" parent="xk_BrVM3mgd0aOaVTL9x-344">
          <mxGeometry x="-0.2673" y="-6" relative="1" as="geometry">
            <mxPoint x="40" y="4" as="offset" />
          </mxGeometry>
        </mxCell>
        <mxCell id="xk_BrVM3mgd0aOaVTL9x-346" value="" style="endArrow=classic;html=1;rounded=0;strokeWidth=4;strokeColor=#000000;exitX=1;exitY=1;exitDx=0;exitDy=0;endFill=1;entryX=0;entryY=0;entryDx=0;entryDy=0;" edge="1" parent="1" source="xk_BrVM3mgd0aOaVTL9x-326" target="xk_BrVM3mgd0aOaVTL9x-334">
          <mxGeometry width="50" height="50" relative="1" as="geometry">
            <mxPoint x="3631" y="5053.5" as="sourcePoint" />
            <mxPoint x="3680" y="5127.5" as="targetPoint" />
          </mxGeometry>
        </mxCell>
        <mxCell id="xk_BrVM3mgd0aOaVTL9x-347" value="&lt;font face=&quot;Comic Sans MS&quot;&gt;&lt;span style=&quot;font-size: 18px; text-wrap: wrap; background-color: rgb(251, 251, 251);&quot;&gt;&lt;b&gt;60&lt;/b&gt;&lt;/span&gt;&lt;/font&gt;" style="edgeLabel;html=1;align=center;verticalAlign=middle;resizable=0;points=[];" vertex="1" connectable="0" parent="xk_BrVM3mgd0aOaVTL9x-346">
          <mxGeometry x="-0.2673" y="-6" relative="1" as="geometry">
            <mxPoint x="-11" y="22" as="offset" />
          </mxGeometry>
        </mxCell>
        <mxCell id="xk_BrVM3mgd0aOaVTL9x-348" value="" style="endArrow=classic;html=1;rounded=0;strokeWidth=4;strokeColor=#000000;exitX=1;exitY=0;exitDx=0;exitDy=0;endFill=1;entryX=0;entryY=0.5;entryDx=0;entryDy=0;" edge="1" parent="1" source="xk_BrVM3mgd0aOaVTL9x-330" target="xk_BrVM3mgd0aOaVTL9x-331">
          <mxGeometry width="50" height="50" relative="1" as="geometry">
            <mxPoint x="3667" y="4936" as="sourcePoint" />
            <mxPoint x="3731" y="4968" as="targetPoint" />
          </mxGeometry>
        </mxCell>
        <mxCell id="xk_BrVM3mgd0aOaVTL9x-349" value="&lt;font face=&quot;Comic Sans MS&quot;&gt;&lt;span style=&quot;font-size: 18px; text-wrap: wrap; background-color: rgb(251, 251, 251);&quot;&gt;&lt;b&gt;90&lt;/b&gt;&lt;/span&gt;&lt;/font&gt;" style="edgeLabel;html=1;align=center;verticalAlign=middle;resizable=0;points=[];" vertex="1" connectable="0" parent="xk_BrVM3mgd0aOaVTL9x-348">
          <mxGeometry x="-0.2673" y="-6" relative="1" as="geometry">
            <mxPoint x="-6" y="-36" as="offset" />
          </mxGeometry>
        </mxCell>
        <mxCell id="xk_BrVM3mgd0aOaVTL9x-352" value="" style="endArrow=classic;html=1;rounded=0;strokeWidth=4;strokeColor=#000000;exitX=1;exitY=1;exitDx=0;exitDy=0;endFill=1;entryX=0;entryY=0;entryDx=0;entryDy=0;" edge="1" parent="1" source="xk_BrVM3mgd0aOaVTL9x-330" target="xk_BrVM3mgd0aOaVTL9x-332">
          <mxGeometry width="50" height="50" relative="1" as="geometry">
            <mxPoint x="3833" y="4939" as="sourcePoint" />
            <mxPoint x="3906" y="4908" as="targetPoint" />
          </mxGeometry>
        </mxCell>
        <mxCell id="xk_BrVM3mgd0aOaVTL9x-353" value="&lt;font face=&quot;Comic Sans MS&quot;&gt;&lt;span style=&quot;font-size: 18px; text-wrap: wrap; background-color: rgb(251, 251, 251);&quot;&gt;&lt;b&gt;200&lt;/b&gt;&lt;/span&gt;&lt;/font&gt;" style="edgeLabel;html=1;align=center;verticalAlign=middle;resizable=0;points=[];" vertex="1" connectable="0" parent="xk_BrVM3mgd0aOaVTL9x-352">
          <mxGeometry x="-0.2673" y="-6" relative="1" as="geometry">
            <mxPoint x="33" y="-8" as="offset" />
          </mxGeometry>
        </mxCell>
        <mxCell id="xk_BrVM3mgd0aOaVTL9x-354" value="" style="endArrow=classic;html=1;rounded=0;strokeWidth=4;strokeColor=#000000;exitX=1;exitY=0.5;exitDx=0;exitDy=0;endFill=1;entryX=0;entryY=0.5;entryDx=0;entryDy=0;" edge="1" parent="1" source="xk_BrVM3mgd0aOaVTL9x-334" target="xk_BrVM3mgd0aOaVTL9x-332">
          <mxGeometry width="50" height="50" relative="1" as="geometry">
            <mxPoint x="3629" y="5056" as="sourcePoint" />
            <mxPoint x="3703" y="5099" as="targetPoint" />
          </mxGeometry>
        </mxCell>
        <mxCell id="xk_BrVM3mgd0aOaVTL9x-355" value="&lt;font face=&quot;Comic Sans MS&quot;&gt;&lt;span style=&quot;font-size: 18px; text-wrap: wrap; background-color: rgb(251, 251, 251);&quot;&gt;&lt;b&gt;90&lt;/b&gt;&lt;/span&gt;&lt;/font&gt;" style="edgeLabel;html=1;align=center;verticalAlign=middle;resizable=0;points=[];" vertex="1" connectable="0" parent="xk_BrVM3mgd0aOaVTL9x-354">
          <mxGeometry x="-0.2673" y="-6" relative="1" as="geometry">
            <mxPoint x="2" y="-35" as="offset" />
          </mxGeometry>
        </mxCell>
        <mxCell id="xk_BrVM3mgd0aOaVTL9x-356" value="" style="endArrow=classic;html=1;rounded=0;strokeWidth=4;strokeColor=#000000;endFill=1;entryX=0;entryY=0;entryDx=0;entryDy=0;" edge="1" parent="1" source="xk_BrVM3mgd0aOaVTL9x-331" target="xk_BrVM3mgd0aOaVTL9x-335">
          <mxGeometry width="50" height="50" relative="1" as="geometry">
            <mxPoint x="3833" y="4939" as="sourcePoint" />
            <mxPoint x="3906" y="4908" as="targetPoint" />
          </mxGeometry>
        </mxCell>
        <mxCell id="xk_BrVM3mgd0aOaVTL9x-357" value="&lt;font face=&quot;Comic Sans MS&quot;&gt;&lt;span style=&quot;font-size: 18px; text-wrap: wrap; background-color: rgb(251, 251, 251);&quot;&gt;&lt;b&gt;100&lt;/b&gt;&lt;/span&gt;&lt;/font&gt;" style="edgeLabel;html=1;align=center;verticalAlign=middle;resizable=0;points=[];" vertex="1" connectable="0" parent="xk_BrVM3mgd0aOaVTL9x-356">
          <mxGeometry x="-0.2673" y="-6" relative="1" as="geometry">
            <mxPoint x="24" y="-23" as="offset" />
          </mxGeometry>
        </mxCell>
        <mxCell id="xk_BrVM3mgd0aOaVTL9x-359" value="" style="endArrow=classic;html=1;rounded=0;strokeWidth=4;strokeColor=#000000;exitX=1;exitY=0;exitDx=0;exitDy=0;endFill=1;entryX=0;entryY=1;entryDx=0;entryDy=0;" edge="1" parent="1" source="xk_BrVM3mgd0aOaVTL9x-332" target="xk_BrVM3mgd0aOaVTL9x-335">
          <mxGeometry width="50" height="50" relative="1" as="geometry">
            <mxPoint x="3916" y="5063" as="sourcePoint" />
            <mxPoint x="3989" y="5032" as="targetPoint" />
          </mxGeometry>
        </mxCell>
        <mxCell id="xk_BrVM3mgd0aOaVTL9x-360" value="&lt;font face=&quot;Comic Sans MS&quot;&gt;&lt;span style=&quot;font-size: 18px; text-wrap: wrap; background-color: rgb(251, 251, 251);&quot;&gt;&lt;b&gt;90&lt;/b&gt;&lt;/span&gt;&lt;/font&gt;" style="edgeLabel;html=1;align=center;verticalAlign=middle;resizable=0;points=[];" vertex="1" connectable="0" parent="xk_BrVM3mgd0aOaVTL9x-359">
          <mxGeometry x="-0.2673" y="-6" relative="1" as="geometry">
            <mxPoint x="-6" y="-34" as="offset" />
          </mxGeometry>
        </mxCell>
        <mxCell id="xk_BrVM3mgd0aOaVTL9x-363" value="" style="endArrow=classic;html=1;rounded=0;strokeWidth=4;strokeColor=#000000;exitX=1;exitY=0.5;exitDx=0;exitDy=0;endFill=1;entryX=0;entryY=0;entryDx=0;entryDy=0;" edge="1" parent="1" source="xk_BrVM3mgd0aOaVTL9x-335" target="xk_BrVM3mgd0aOaVTL9x-325">
          <mxGeometry width="50" height="50" relative="1" as="geometry">
            <mxPoint x="3958" y="5069" as="sourcePoint" />
            <mxPoint x="4024" y="5046" as="targetPoint" />
          </mxGeometry>
        </mxCell>
        <mxCell id="xk_BrVM3mgd0aOaVTL9x-364" value="&lt;font face=&quot;Comic Sans MS&quot;&gt;&lt;span style=&quot;font-size: 18px; text-wrap: wrap; background-color: rgb(251, 251, 251);&quot;&gt;&lt;b&gt;0&lt;/b&gt;&lt;/span&gt;&lt;/font&gt;" style="edgeLabel;html=1;align=center;verticalAlign=middle;resizable=0;points=[];" vertex="1" connectable="0" parent="xk_BrVM3mgd0aOaVTL9x-363">
          <mxGeometry x="-0.2673" y="-6" relative="1" as="geometry">
            <mxPoint x="5" y="-34" as="offset" />
          </mxGeometry>
        </mxCell>
        <mxCell id="xk_BrVM3mgd0aOaVTL9x-365" value="" style="rounded=1;whiteSpace=wrap;html=1;fillColor=#99FFFF;strokeColor=none;fontColor=#000000;arcSize=10;container=0;" vertex="1" parent="1">
          <mxGeometry x="4264" y="3373" width="150" height="764" as="geometry" />
        </mxCell>
        <mxCell id="xk_BrVM3mgd0aOaVTL9x-366" value="&lt;b style=&quot;font-family: &amp;quot;Comic Sans MS&amp;quot;; font-size: 18px;&quot;&gt;Environment&lt;/b&gt;" style="ellipse;whiteSpace=wrap;html=1;aspect=fixed;fillStyle=auto;gradientColor=none;fillColor=#CCFFFF;shadow=0;strokeWidth=2;container=0;fontColor=#000000;strokeColor=#000000;" vertex="1" parent="1">
          <mxGeometry x="4281.5" y="3677.36" width="115" height="115" as="geometry" />
        </mxCell>
        <mxCell id="xk_BrVM3mgd0aOaVTL9x-367" value="" style="rounded=1;whiteSpace=wrap;html=1;fillColor=#E6FFCC;strokeColor=none;fontColor=#000000;arcSize=2;container=0;" vertex="1" parent="1">
          <mxGeometry x="4435.99" y="3374" width="650.01" height="763" as="geometry" />
        </mxCell>
        <mxCell id="xk_BrVM3mgd0aOaVTL9x-368" value="&lt;font face=&quot;Comic Sans MS&quot;&gt;&lt;span style=&quot;font-size: 16px;&quot;&gt;&lt;b&gt;Sensors&lt;/b&gt;&lt;/span&gt;&lt;/font&gt;" style="rounded=1;whiteSpace=wrap;html=1;fillColor=#002040;strokeColor=none;fontColor=#FFFFFF;arcSize=50;container=0;" vertex="1" parent="1">
          <mxGeometry x="4703.5" y="3400" width="115" height="29" as="geometry" />
        </mxCell>
        <mxCell id="xk_BrVM3mgd0aOaVTL9x-369" value="&lt;font face=&quot;Comic Sans MS&quot; style=&quot;font-size: 16px;&quot;&gt;&lt;b style=&quot;&quot;&gt;Environment and Models&lt;/b&gt;&lt;/font&gt;" style="rounded=1;whiteSpace=wrap;html=1;fillColor=#80FF00;strokeColor=none;fontColor=#000000;arcSize=18;container=0;" vertex="1" parent="1">
          <mxGeometry x="4264" y="3325" width="821" height="38" as="geometry" />
        </mxCell>
        <mxCell id="xk_BrVM3mgd0aOaVTL9x-370" value="&lt;font face=&quot;Comic Sans MS&quot;&gt;&lt;span style=&quot;font-size: 16px;&quot;&gt;&lt;b&gt;Actuators&lt;/b&gt;&lt;/span&gt;&lt;/font&gt;" style="rounded=1;whiteSpace=wrap;html=1;fillColor=#002040;strokeColor=none;fontColor=#FFFFFF;arcSize=50;container=0;" vertex="1" parent="1">
          <mxGeometry x="4703.5" y="4084" width="115" height="29" as="geometry" />
        </mxCell>
        <mxCell id="xk_BrVM3mgd0aOaVTL9x-371" value="" style="endArrow=classic;html=1;rounded=1;strokeWidth=4;strokeColor=#000000;exitX=0.5;exitY=0;exitDx=0;exitDy=0;entryX=0;entryY=0.5;entryDx=0;entryDy=0;endFill=1;curved=0;" edge="1" parent="1" source="xk_BrVM3mgd0aOaVTL9x-366" target="xk_BrVM3mgd0aOaVTL9x-368">
          <mxGeometry width="50" height="50" relative="1" as="geometry">
            <mxPoint x="4705" y="3224" as="sourcePoint" />
            <mxPoint x="4726" y="3277" as="targetPoint" />
            <Array as="points">
              <mxPoint x="4339" y="3417" />
            </Array>
          </mxGeometry>
        </mxCell>
        <mxCell id="xk_BrVM3mgd0aOaVTL9x-372" value="&lt;font face=&quot;Comic Sans MS&quot;&gt;&lt;span style=&quot;font-size: 18px; text-wrap: wrap;&quot;&gt;&lt;b&gt;Percept&lt;/b&gt;&lt;/span&gt;&lt;/font&gt;" style="edgeLabel;html=1;align=center;verticalAlign=middle;resizable=0;points=[];labelBackgroundColor=none;" vertex="1" connectable="0" parent="xk_BrVM3mgd0aOaVTL9x-371">
          <mxGeometry x="0.1441" relative="1" as="geometry">
            <mxPoint x="140" y="-24" as="offset" />
          </mxGeometry>
        </mxCell>
        <mxCell id="xk_BrVM3mgd0aOaVTL9x-373" value="" style="endArrow=classic;html=1;rounded=1;strokeWidth=4;strokeColor=#000000;exitX=0;exitY=0.5;exitDx=0;exitDy=0;entryX=0.5;entryY=1;entryDx=0;entryDy=0;endFill=1;curved=0;" edge="1" parent="1" source="xk_BrVM3mgd0aOaVTL9x-370" target="xk_BrVM3mgd0aOaVTL9x-366">
          <mxGeometry width="50" height="50" relative="1" as="geometry">
            <mxPoint x="4358.1" y="3610" as="sourcePoint" />
            <mxPoint x="4339.27" y="3697" as="targetPoint" />
            <Array as="points">
              <mxPoint x="4336" y="4097" />
            </Array>
          </mxGeometry>
        </mxCell>
        <mxCell id="xk_BrVM3mgd0aOaVTL9x-387" value="&lt;font face=&quot;Comic Sans MS&quot;&gt;&lt;span style=&quot;font-size: 18px; text-wrap: wrap;&quot;&gt;&lt;b&gt;Action&lt;/b&gt;&lt;/span&gt;&lt;/font&gt;" style="edgeLabel;html=1;align=center;verticalAlign=middle;resizable=0;points=[];labelBackgroundColor=none;" vertex="1" connectable="0" parent="1">
          <mxGeometry x="4543.997697317555" y="4076.9997936549626" as="geometry">
            <mxPoint x="4" y="-2" as="offset" />
          </mxGeometry>
        </mxCell>
        <mxCell id="xk_BrVM3mgd0aOaVTL9x-388" value="" style="rounded=1;whiteSpace=wrap;html=1;fillColor=#FFCCFF;strokeColor=#4D4D4D;fontColor=#000000;arcSize=3;container=0;strokeWidth=3;" vertex="1" parent="1">
          <mxGeometry x="4447.99" y="3461" width="626.01" height="579" as="geometry" />
        </mxCell>
        <mxCell id="xk_BrVM3mgd0aOaVTL9x-389" value="&lt;font face=&quot;Comic Sans MS&quot;&gt;&lt;span style=&quot;font-size: 16px;&quot;&gt;&lt;b&gt;Search and Problem-Solving&lt;/b&gt;&lt;/span&gt;&lt;/font&gt;" style="rounded=1;whiteSpace=wrap;html=1;fillColor=#003366;strokeColor=none;fontColor=#FFFFFF;arcSize=18;container=0;" vertex="1" parent="1">
          <mxGeometry x="4459" y="3504" width="607" height="30" as="geometry" />
        </mxCell>
        <mxCell id="xk_BrVM3mgd0aOaVTL9x-390" value="" style="rounded=1;whiteSpace=wrap;html=1;fillColor=#00FFFF;strokeColor=none;fontColor=#FFFFFF;arcSize=5;container=0;" vertex="1" parent="1">
          <mxGeometry x="4459" y="3537" width="607" height="198" as="geometry" />
        </mxCell>
        <mxCell id="xk_BrVM3mgd0aOaVTL9x-391" value="&lt;b style=&quot;color: rgb(0, 0, 0); font-family: &amp;quot;Comic Sans MS&amp;quot;; font-size: 15px;&quot;&gt;Uniformed Search&lt;/b&gt;&lt;div&gt;&lt;b style=&quot;color: rgb(0, 0, 0); font-family: &amp;quot;Comic Sans MS&amp;quot;; font-size: 15px;&quot;&gt;1) Breadth-First Search&lt;/b&gt;&lt;/div&gt;&lt;div&gt;&lt;b style=&quot;color: rgb(0, 0, 0); font-family: &amp;quot;Comic Sans MS&amp;quot;; font-size: 15px;&quot;&gt;2) Depth-First Search&lt;/b&gt;&lt;/div&gt;&lt;div&gt;&lt;b style=&quot;color: rgb(0, 0, 0); font-family: &amp;quot;Comic Sans MS&amp;quot;; font-size: 15px;&quot;&gt;3) Backtracking&lt;/b&gt;&lt;/div&gt;" style="rounded=1;whiteSpace=wrap;html=1;fillColor=#99FFFF;strokeColor=none;fontColor=#FFFFFF;arcSize=5;container=0;gradientColor=none;" vertex="1" parent="1">
          <mxGeometry x="4469" y="3547" width="287" height="84" as="geometry" />
        </mxCell>
        <mxCell id="xk_BrVM3mgd0aOaVTL9x-392" value="&lt;font face=&quot;Comic Sans MS&quot; color=&quot;#000000&quot;&gt;&lt;span style=&quot;font-size: 15px;&quot;&gt;&lt;b&gt;Informed Search&lt;/b&gt;&lt;/span&gt;&lt;/font&gt;&lt;div&gt;&lt;font face=&quot;Comic Sans MS&quot; color=&quot;#000000&quot;&gt;&lt;span style=&quot;font-size: 15px;&quot;&gt;&lt;b&gt;1) Heuristics&lt;/b&gt;&lt;/span&gt;&lt;/font&gt;&lt;/div&gt;&lt;div&gt;&lt;font face=&quot;Comic Sans MS&quot; color=&quot;#000000&quot;&gt;&lt;span style=&quot;font-size: 15px;&quot;&gt;&lt;b&gt;2) Greedy Best-First Search&lt;/b&gt;&lt;/span&gt;&lt;/font&gt;&lt;/div&gt;&lt;div&gt;&lt;font face=&quot;Comic Sans MS&quot; color=&quot;#000000&quot;&gt;&lt;span style=&quot;font-size: 15px;&quot;&gt;&lt;b&gt;3) Algorithm A/A*&lt;/b&gt;&lt;/span&gt;&lt;/font&gt;&lt;/div&gt;" style="rounded=1;whiteSpace=wrap;html=1;fillColor=#99FFFF;strokeColor=none;fontColor=#FFFFFF;arcSize=5;container=0;gradientColor=none;" vertex="1" parent="1">
          <mxGeometry x="4766" y="3547" width="287" height="84" as="geometry" />
        </mxCell>
        <mxCell id="xk_BrVM3mgd0aOaVTL9x-393" value="&lt;font face=&quot;Comic Sans MS&quot; color=&quot;#000000&quot;&gt;&lt;span style=&quot;font-size: 15px;&quot;&gt;&lt;b&gt;Adeversarial Search&lt;/b&gt;&lt;/span&gt;&lt;/font&gt;&lt;div&gt;&lt;font face=&quot;Comic Sans MS&quot; color=&quot;#000000&quot;&gt;&lt;span style=&quot;font-size: 15px;&quot;&gt;&lt;b&gt;1) Minimax Algorithm&lt;/b&gt;&lt;/span&gt;&lt;/font&gt;&lt;/div&gt;&lt;div&gt;&lt;font face=&quot;Comic Sans MS&quot; color=&quot;#000000&quot;&gt;&lt;span style=&quot;font-size: 15px;&quot;&gt;&lt;b&gt;2) Alpha-Beta Pruning&lt;/b&gt;&lt;/span&gt;&lt;/font&gt;&lt;/div&gt;" style="rounded=1;whiteSpace=wrap;html=1;fillColor=#99FFFF;strokeColor=none;fontColor=#FFFFFF;arcSize=5;container=0;gradientColor=none;" vertex="1" parent="1">
          <mxGeometry x="4468.99" y="3641" width="287" height="84" as="geometry" />
        </mxCell>
        <mxCell id="xk_BrVM3mgd0aOaVTL9x-394" value="&lt;font face=&quot;Comic Sans MS&quot; color=&quot;#000000&quot;&gt;&lt;span style=&quot;font-size: 15px;&quot;&gt;&lt;b&gt;Optimisation&lt;/b&gt;&lt;/span&gt;&lt;/font&gt;" style="rounded=1;whiteSpace=wrap;html=1;fillColor=#99FFFF;strokeColor=none;fontColor=#FFFFFF;arcSize=5;container=0;gradientColor=none;" vertex="1" parent="1">
          <mxGeometry x="4765.99" y="3641" width="287" height="84" as="geometry" />
        </mxCell>
        <mxCell id="xk_BrVM3mgd0aOaVTL9x-395" value="&lt;font face=&quot;Comic Sans MS&quot;&gt;&lt;span style=&quot;font-size: 16px;&quot;&gt;&lt;b&gt;Bayesian Networks&lt;/b&gt;&lt;/span&gt;&lt;/font&gt;" style="rounded=1;whiteSpace=wrap;html=1;fillColor=#CC6600;strokeColor=none;fontColor=#FFFFFF;arcSize=18;container=0;" vertex="1" parent="1">
          <mxGeometry x="4459" y="3754" width="295" height="30" as="geometry" />
        </mxCell>
        <mxCell id="xk_BrVM3mgd0aOaVTL9x-396" value="" style="rounded=1;whiteSpace=wrap;html=1;fillColor=#FF9933;strokeColor=none;fontColor=#FFFFFF;arcSize=5;container=0;" vertex="1" parent="1">
          <mxGeometry x="4459" y="3787" width="295" height="241" as="geometry" />
        </mxCell>
        <mxCell id="xk_BrVM3mgd0aOaVTL9x-397" value="&lt;b style=&quot;color: rgb(0, 0, 0); font-family: &amp;quot;Comic Sans MS&amp;quot;; font-size: 15px;&quot;&gt;Uniformed Search&lt;/b&gt;&lt;div&gt;&lt;b style=&quot;color: rgb(0, 0, 0); font-family: &amp;quot;Comic Sans MS&amp;quot;; font-size: 15px;&quot;&gt;1) Breadth-First Search&lt;/b&gt;&lt;/div&gt;&lt;div&gt;&lt;b style=&quot;color: rgb(0, 0, 0); font-family: &amp;quot;Comic Sans MS&amp;quot;; font-size: 15px;&quot;&gt;2) Depth-First Search&lt;/b&gt;&lt;/div&gt;&lt;div&gt;&lt;b style=&quot;color: rgb(0, 0, 0); font-family: &amp;quot;Comic Sans MS&amp;quot;; font-size: 15px;&quot;&gt;3) Backtracking&lt;/b&gt;&lt;/div&gt;" style="rounded=1;whiteSpace=wrap;html=1;fillColor=#FFE6CC;strokeColor=none;fontColor=#FFFFFF;arcSize=5;container=0;gradientColor=none;" vertex="1" parent="1">
          <mxGeometry x="4469" y="3797" width="275" height="101" as="geometry" />
        </mxCell>
        <mxCell id="xk_BrVM3mgd0aOaVTL9x-399" value="&lt;font face=&quot;Comic Sans MS&quot; color=&quot;#000000&quot;&gt;&lt;span style=&quot;font-size: 15px;&quot;&gt;&lt;b&gt;Adeversarial Search&lt;/b&gt;&lt;/span&gt;&lt;/font&gt;&lt;div&gt;&lt;font face=&quot;Comic Sans MS&quot; color=&quot;#000000&quot;&gt;&lt;span style=&quot;font-size: 15px;&quot;&gt;&lt;b&gt;1) Minimax Algorithm&lt;/b&gt;&lt;/span&gt;&lt;/font&gt;&lt;/div&gt;&lt;div&gt;&lt;font face=&quot;Comic Sans MS&quot; color=&quot;#000000&quot;&gt;&lt;span style=&quot;font-size: 15px;&quot;&gt;&lt;b&gt;2) Alpha-Beta Pruning&lt;/b&gt;&lt;/span&gt;&lt;/font&gt;&lt;/div&gt;" style="rounded=1;whiteSpace=wrap;html=1;fillColor=#FFE6CC;strokeColor=none;fontColor=#FFFFFF;arcSize=5;container=0;gradientColor=none;" vertex="1" parent="1">
          <mxGeometry x="4468.99" y="3906" width="275.01" height="112" as="geometry" />
        </mxCell>
        <mxCell id="xk_BrVM3mgd0aOaVTL9x-401" value="&lt;font face=&quot;Comic Sans MS&quot;&gt;&lt;span style=&quot;font-size: 16px;&quot;&gt;&lt;b&gt;Machine Learning&lt;/b&gt;&lt;/span&gt;&lt;/font&gt;" style="rounded=1;whiteSpace=wrap;html=1;fillColor=#CC00CC;strokeColor=none;fontColor=#FFFFFF;arcSize=18;container=0;" vertex="1" parent="1">
          <mxGeometry x="4771" y="3753.5" width="295" height="30" as="geometry" />
        </mxCell>
        <mxCell id="xk_BrVM3mgd0aOaVTL9x-402" value="" style="rounded=1;whiteSpace=wrap;html=1;fillColor=#FF33FF;strokeColor=none;fontColor=#FFFFFF;arcSize=5;container=0;" vertex="1" parent="1">
          <mxGeometry x="4771" y="3786.5" width="295" height="241.5" as="geometry" />
        </mxCell>
        <mxCell id="xk_BrVM3mgd0aOaVTL9x-403" value="&lt;font face=&quot;Comic Sans MS&quot; color=&quot;#000000&quot;&gt;&lt;span style=&quot;font-size: 15px;&quot;&gt;&lt;b&gt;Supervised Learning&lt;/b&gt;&lt;/span&gt;&lt;/font&gt;&lt;div&gt;&lt;font face=&quot;Comic Sans MS&quot; color=&quot;#000000&quot;&gt;&lt;span style=&quot;font-size: 15px;&quot;&gt;&lt;b&gt;1) Regression&lt;/b&gt;&lt;/span&gt;&lt;/font&gt;&lt;/div&gt;&lt;div&gt;&lt;font face=&quot;Comic Sans MS&quot; color=&quot;#000000&quot;&gt;&lt;span style=&quot;font-size: 15px;&quot;&gt;&lt;b&gt;2) Classification (K-Nearest Neighbours/Bayes Classication)&lt;/b&gt;&lt;/span&gt;&lt;/font&gt;&lt;/div&gt;&lt;div&gt;&lt;font face=&quot;Comic Sans MS&quot; color=&quot;#000000&quot;&gt;&lt;span style=&quot;font-size: 15px;&quot;&gt;&lt;b&gt;3) Decision Tree&lt;/b&gt;&lt;/span&gt;&lt;/font&gt;&lt;/div&gt;" style="rounded=1;whiteSpace=wrap;html=1;fillColor=#FFCCFF;strokeColor=none;fontColor=#FFFFFF;arcSize=5;container=0;gradientColor=none;" vertex="1" parent="1">
          <mxGeometry x="4781" y="3796.5" width="275" height="101.5" as="geometry" />
        </mxCell>
        <mxCell id="xk_BrVM3mgd0aOaVTL9x-404" value="&lt;font face=&quot;Comic Sans MS&quot; color=&quot;#000000&quot;&gt;&lt;span style=&quot;font-size: 15px;&quot;&gt;&lt;b&gt;Unsurpervised Learning&lt;/b&gt;&lt;/span&gt;&lt;/font&gt;&lt;div&gt;&lt;font face=&quot;Comic Sans MS&quot; color=&quot;#000000&quot;&gt;&lt;span style=&quot;font-size: 15px;&quot;&gt;&lt;b&gt;1) Cluster Models (K-Means)&lt;/b&gt;&lt;/span&gt;&lt;/font&gt;&lt;/div&gt;" style="rounded=1;whiteSpace=wrap;html=1;fillColor=#FFCCFF;strokeColor=none;fontColor=#FFFFFF;arcSize=5;container=0;gradientColor=none;" vertex="1" parent="1">
          <mxGeometry x="4780.99" y="3905.5" width="275.01" height="52.5" as="geometry" />
        </mxCell>
        <mxCell id="xk_BrVM3mgd0aOaVTL9x-405" value="&lt;font face=&quot;Comic Sans MS&quot; color=&quot;#000000&quot;&gt;&lt;span style=&quot;font-size: 15px;&quot;&gt;&lt;b&gt;Deep Learning&lt;/b&gt;&lt;/span&gt;&lt;/font&gt;&lt;div&gt;&lt;font face=&quot;Comic Sans MS&quot; color=&quot;#000000&quot;&gt;&lt;span style=&quot;font-size: 15px;&quot;&gt;&lt;b&gt;1) Artificial Neural Networks&lt;/b&gt;&lt;/span&gt;&lt;/font&gt;&lt;/div&gt;" style="rounded=1;whiteSpace=wrap;html=1;fillColor=#FFCCFF;strokeColor=none;fontColor=#FFFFFF;arcSize=5;container=0;gradientColor=none;" vertex="1" parent="1">
          <mxGeometry x="4780.99" y="3964.5" width="275.01" height="52.5" as="geometry" />
        </mxCell>
        <mxCell id="xk_BrVM3mgd0aOaVTL9x-406" value="&lt;font face=&quot;Comic Sans MS&quot;&gt;&lt;span style=&quot;font-size: 16px;&quot;&gt;&lt;b&gt;Models&lt;/b&gt;&lt;/span&gt;&lt;/font&gt;" style="rounded=1;whiteSpace=wrap;html=1;fillColor=#660066;strokeColor=none;fontColor=#FFFFFF;arcSize=18;container=0;" vertex="1" parent="1">
          <mxGeometry x="4459" y="3468" width="607" height="29" as="geometry" />
        </mxCell>
        <mxCell id="xk_BrVM3mgd0aOaVTL9x-407" value="" style="endArrow=classic;html=1;rounded=0;strokeWidth=4;strokeColor=#000000;exitX=0.5;exitY=1;exitDx=0;exitDy=0;endFill=1;entryX=0.5;entryY=0;entryDx=0;entryDy=0;" edge="1" parent="1" source="xk_BrVM3mgd0aOaVTL9x-368" target="xk_BrVM3mgd0aOaVTL9x-388">
          <mxGeometry width="50" height="50" relative="1" as="geometry">
            <mxPoint x="4704" y="3449" as="sourcePoint" />
            <mxPoint x="4704" y="3511" as="targetPoint" />
          </mxGeometry>
        </mxCell>
        <mxCell id="xk_BrVM3mgd0aOaVTL9x-408" value="" style="endArrow=classic;html=1;rounded=0;strokeWidth=4;strokeColor=#000000;exitX=0.5;exitY=1;exitDx=0;exitDy=0;endFill=1;entryX=0.5;entryY=0;entryDx=0;entryDy=0;" edge="1" parent="1" source="xk_BrVM3mgd0aOaVTL9x-388" target="xk_BrVM3mgd0aOaVTL9x-370">
          <mxGeometry width="50" height="50" relative="1" as="geometry">
            <mxPoint x="4771" y="3439" as="sourcePoint" />
            <mxPoint x="4771" y="3471" as="targetPoint" />
          </mxGeometry>
        </mxCell>
      </root>
    </mxGraphModel>
  </diagram>
</mxfile>
